<svg width="14" height="14" viewBox="0 0 14 14" fill="none" xmlns="http://www.w3.org/2000/svg">
<path fill-rule="evenodd" clip-rule="evenodd" d="M11.69 0C12.481 0 13.125 0.644 13.125 1.442L13.125 14L11.62 12.67L10.773 11.886L9.877 11.053L10.248 12.348L2.31 12.348C1.519 12.348 0.875 11.704 0.875 10.906L0.875 1.442C0.875 0.644 1.519 0 2.31 0L11.69 0V0ZM8.988 9.142C10.535 9.093 11.13 8.078 11.13 8.078C11.13 5.824 10.122 3.997 10.122 3.997C9.114 3.241 8.155 3.262 8.155 3.262L8.057 3.374C9.247 3.738 9.8 4.263 9.8 4.263C9.072 3.864 8.358 3.668 7.693 3.591C7.189 3.535 6.706 3.549 6.279 3.605L6.16 3.619C5.915 3.64 5.32 3.731 4.571 4.06C4.312 4.179 4.158 4.263 4.158 4.263C4.158 4.263 4.739 3.71 5.999 3.346L5.929 3.262C5.929 3.262 4.97 3.241 3.962 3.997C3.962 3.997 2.954 5.824 2.954 8.078C2.954 8.078 3.542 9.093 5.089 9.142C5.089 9.142 5.348 8.827 5.558 8.561C4.669 8.295 4.333 7.735 4.333 7.735L4.529 7.854L4.557 7.875L4.58442 7.89075L4.59258 7.89425L4.62 7.91C4.795 8.008 4.97 8.085 5.131 8.148C5.418 8.26 5.761 8.372 6.16 8.449C6.685 8.547 7.301 8.582 7.973 8.456C8.302 8.4 8.638 8.302 8.988 8.155C9.233 8.064 9.506 7.931 9.793 7.742C9.793 7.742 9.443 8.316 8.526 8.575C8.736 8.841 8.988 9.142 8.988 9.142ZM5.733 5.873C5.334 5.873 5.019 6.223 5.019 6.65C5.019 7.077 5.341 7.427 5.733 7.427C6.132 7.427 6.447 7.077 6.447 6.65C6.454 6.223 6.132 5.873 5.733 5.873ZM8.288 5.873C7.889 5.873 7.574 6.223 7.574 6.65C7.574 7.077 7.896 7.427 8.288 7.427C8.687 7.427 9.002 7.077 9.002 6.65C9.002 6.223 8.687 5.873 8.288 5.873Z" fill="#898989"/>
</svg>
