<svg width="13" height="12" viewBox="0 0 13 12" fill="none" xmlns="http://www.w3.org/2000/svg">
<path d="M6.15168 0C2.75493 0 0 2.75442 0 6.15168C0 8.8697 1.76246 11.1756 4.20724 11.9891C4.51431 12.046 4.61376 11.8553 4.61376 11.6933V10.5481C2.90257 10.9203 2.54628 9.82219 2.54628 9.82219C2.26638 9.11115 1.86293 8.92199 1.86293 8.92199C1.30467 8.54007 1.90548 8.54827 1.90548 8.54827C2.52322 8.59134 2.84823 9.18241 2.84823 9.18241C3.39675 10.1226 4.28721 9.85089 4.63837 9.69351C4.69322 9.29622 4.85265 9.02452 5.029 8.87124C3.66281 8.71488 2.2264 8.18738 2.2264 5.83077C2.2264 5.1587 2.46682 4.61017 2.86002 4.17956C2.79645 4.02423 2.58576 3.39829 2.92 2.55141C2.92 2.55141 3.43674 2.38634 4.61222 3.18196C5.10282 3.0456 5.62879 2.97741 6.15168 2.97485C6.67458 2.97741 7.20106 3.0456 7.69268 3.18196C8.86714 2.38634 9.38285 2.55141 9.38285 2.55141C9.71761 3.3988 9.50691 4.02474 9.44334 4.17956C9.83808 4.61017 10.0765 5.15921 10.0765 5.83077C10.0765 8.19353 8.63747 8.71386 7.2677 8.86611C7.48814 9.05681 7.6896 9.43104 7.6896 10.0052V11.6933C7.6896 11.8569 7.78803 12.0491 8.10023 11.9886C10.543 11.174 12.3034 8.86868 12.3034 6.15168C12.3034 2.75442 9.54895 0 6.15168 0Z" fill="#898989"/>
</svg>
