<svg width="19" height="18" viewBox="0 0 19 18" fill="none" xmlns="http://www.w3.org/2000/svg">
<path fill-rule="evenodd" clip-rule="evenodd" d="M7.89739 8.97587C7.89739 11.1717 6.12949 12.9516 3.94877 12.9516C1.76805 12.9516 0 11.1717 0 8.97587C0 6.78013 1.76792 5 3.94877 5C6.12963 5 7.89739 6.78013 7.89739 8.97587ZM12.2295 8.9759C12.2295 11.0428 11.3455 12.7189 10.2551 12.7189C9.16469 12.7189 8.28069 11.0428 8.28069 8.9759C8.28069 6.90908 9.16459 5.23293 10.255 5.23293C11.3454 5.23293 12.2294 6.90854 12.2294 8.9759H12.2295ZM13.3047 12.3292C13.6883 12.3292 13.9991 10.8274 13.9991 8.976C13.9991 7.1241 13.6881 5.62289 13.3047 5.62289C12.9213 5.62289 12.6104 7.12423 12.6104 8.976C12.6104 10.8278 12.9211 12.3292 13.3047 12.3292Z" fill="#898989"/>
</svg>
