<svg width="16" height="12" viewBox="0 0 16 12" fill="none" xmlns="http://www.w3.org/2000/svg">
<path d="M15.2662 1.42063C14.7229 1.66181 14.139 1.82424 13.5263 1.89746C14.152 1.52276 14.6325 0.92904 14.8583 0.221493C14.2732 0.568499 13.6247 0.820755 12.9344 0.956727C12.3825 0.367925 11.5943 0 10.7231 0C8.76723 0 7.32998 1.82486 7.77174 3.71924C5.25472 3.59311 3.02256 2.3872 1.5281 0.554348C0.734413 1.91591 1.11649 3.69709 2.46514 4.59906C1.96924 4.58306 1.50164 4.44709 1.09372 4.22006C1.0605 5.62346 2.06645 6.93642 3.52338 7.22867C3.09701 7.34434 2.63002 7.37141 2.15505 7.28035C2.5402 8.4838 3.65874 9.35931 4.98523 9.38392C3.71165 10.3825 2.10705 10.8285 0.5 10.639C1.84065 11.4986 3.43355 12 5.14397 12C10.7687 12 13.9465 7.24959 13.7545 2.98892C14.3464 2.56132 14.8601 2.02789 15.2662 1.42063Z" fill="#898989"/>
</svg>
