<svg width="18" height="18" viewBox="0 0 18 18" fill="none" xmlns="http://www.w3.org/2000/svg">
<path d="M9 1.5C5.27684 1.5 2.25 4.11534 2.25 7.3505C2.25 7.42609 2.27842 7.5168 2.33526 7.56215L8.78684 14.8942C8.84368 14.9546 8.92895 15 9 15C9.07105 15 9.15632 14.9698 9.21316 14.8942L15.6647 7.57727C15.7216 7.5168 15.75 7.44121 15.75 7.36562C15.75 4.11534 12.7232 1.5 9 1.5ZM9 6.54927C9.93789 6.54927 10.5774 6.88186 10.7621 7.18421C10.8047 7.2598 10.8047 7.36562 10.7763 7.45633L9 13.5487L7.22368 7.44121C7.19526 7.36562 7.19526 7.2598 7.22368 7.19933C7.39421 6.88186 8.03368 6.54927 9 6.54927ZM4.72263 6.54927C5.84526 6.54927 6.47053 7.0028 6.55579 7.3505L8.34632 13.4731L2.91789 7.30515C2.97474 6.97256 3.65684 6.54927 4.72263 6.54927ZM11.43 7.3505C11.5437 6.95745 12.1405 6.54927 13.2774 6.54927C14.3432 6.54927 15.0111 6.97256 15.0821 7.30515L9.65368 13.4731L11.43 7.3505Z" fill="#898989"/>
<path d="M6.75 14.25C6.75 13.0069 7.75688 12 9 12C10.2431 12 11.25 13.0069 11.25 14.25C11.25 15.4931 10.2431 16.5 9 16.5C7.75688 16.5 6.75 15.4931 6.75 14.25Z" fill="#898989"/>
</svg>
