<svg width="16" height="22" viewBox="0 0 16 22" fill="none" xmlns="http://www.w3.org/2000/svg">
<rect x="2.6665" y="16" width="2.66666" height="2.66666" transform="rotate(-180 2.6665 16)" fill="#00F0FF"/>
<rect x="2.6665" y="13.3333" width="2.66666" height="2.66666" transform="rotate(-180 2.6665 13.3333)" fill="#FFFE58"/>
<rect x="8" y="10.6666" width="2.66666" height="2.66666" transform="rotate(-180 8 10.6666)" fill="#00F0FF"/>
<rect x="8" y="15.9998" width="2.66666" height="2.66666" transform="rotate(-180 8 15.9998)" fill="#36FF7A"/>
<rect x="2.6665" y="21.3336" width="2.66666" height="2.66666" transform="rotate(-180 2.6665 21.3336)" fill="#36FF7A"/>
<rect x="13.3335" y="10.6666" width="2.66666" height="2.66666" transform="rotate(-180 13.3335 10.6666)" fill="#FFFE58"/>
<rect x="2.6665" y="7.99988" width="2.66666" height="2.66666" transform="rotate(-180 2.6665 7.99988)" fill="#00F0FF"/>
<rect x="8" y="7.99988" width="2.66666" height="2.66666" transform="rotate(-180 8 7.99988)" fill="#E85EF6"/>
<rect x="2.6665" y="5.33325" width="2.66666" height="2.66666" transform="rotate(-180 2.6665 5.33325)" fill="#E85EF6"/>
<rect x="13.3335" y="5.33325" width="2.66666" height="2.66666" transform="rotate(-180 13.3335 5.33325)" fill="#36FF7A"/>
<rect x="2.6665" y="2.66663" width="2.66666" height="2.66666" transform="rotate(-180 2.6665 2.66663)" fill="#E85EF6"/>
<rect x="8" y="2.66663" width="2.66666" height="2.66666" transform="rotate(-180 8 2.66663)" fill="#FFFE58"/>
<rect x="13.3335" y="2.66663" width="2.66666" height="2.66666" transform="rotate(-180 13.3335 2.66663)" fill="#00F0FF"/>
<rect x="16.0005" y="2.66663" width="2.66666" height="2.66666" transform="rotate(-180 16.0005 2.66663)" fill="#36FF7A"/>
</svg>
