<svg width="24" height="24" viewBox="0 0 24 24" fill="none" xmlns="http://www.w3.org/2000/svg">
<path d="M5.25 3C4.65326 3 4.08097 3.23705 3.65901 3.65901C3.23705 4.08097 3 4.65326 3 5.25L3 18.75C3 19.3467 3.23705 19.919 3.65901 20.341C4.08097 20.7629 4.65326 21 5.25 21H18.75C19.3467 21 19.919 20.7629 20.341 20.341C20.7629 19.919 21 19.3467 21 18.75V5.25C21 4.65326 20.7629 4.08097 20.341 3.65901C19.919 3.23705 19.3467 3 18.75 3H5.25ZM6.9375 5.8125C13.1509 5.8125 18.1875 10.8491 18.1875 17.0625C18.1875 17.3609 18.069 17.647 17.858 17.858C17.647 18.069 17.3609 18.1875 17.0625 18.1875C16.7641 18.1875 16.478 18.069 16.267 17.858C16.056 17.647 15.9375 17.3609 15.9375 17.0625C15.9375 14.6756 14.9893 12.3864 13.3015 10.6985C11.6136 9.01071 9.32445 8.0625 6.9375 8.0625C6.63913 8.0625 6.35298 7.94397 6.142 7.733C5.93103 7.52202 5.8125 7.23587 5.8125 6.9375C5.8125 6.63913 5.93103 6.35298 6.142 6.142C6.35298 5.93103 6.63913 5.8125 6.9375 5.8125ZM6.9375 10.3125C8.72771 10.3125 10.4446 11.0237 11.7105 12.2895C12.9763 13.5554 13.6875 15.2723 13.6875 17.0625C13.6875 17.3609 13.569 17.647 13.358 17.858C13.147 18.069 12.8609 18.1875 12.5625 18.1875C12.2641 18.1875 11.978 18.069 11.767 17.858C11.556 17.647 11.4375 17.3609 11.4375 17.0625C11.4375 15.869 10.9634 14.7244 10.1195 13.8805C9.27557 13.0366 8.13097 12.5625 6.9375 12.5625C6.63913 12.5625 6.35298 12.444 6.142 12.233C5.93103 12.022 5.8125 11.7359 5.8125 11.4375C5.8125 11.1391 5.93103 10.853 6.142 10.642C6.35298 10.431 6.63913 10.3125 6.9375 10.3125ZM7.5 18.1875C7.05245 18.1875 6.62322 18.0097 6.30676 17.6932C5.99029 17.3768 5.8125 16.9476 5.8125 16.5C5.8125 16.0524 5.99029 15.6232 6.30676 15.3068C6.62322 14.9903 7.05245 14.8125 7.5 14.8125C7.94755 14.8125 8.37678 14.9903 8.69324 15.3068C9.00971 15.6232 9.1875 16.0524 9.1875 16.5C9.1875 16.9476 9.00971 17.3768 8.69324 17.6932C8.37678 18.0097 7.94755 18.1875 7.5 18.1875Z" fill="#36FF7A"/>
</svg>
