<svg width="18" height="18" viewBox="0 0 18 18" fill="none" xmlns="http://www.w3.org/2000/svg">
<path d="M16.0714 0H1.92857C0.863839 0 0 0.863839 0 1.92857V16.0714C0 17.1362 0.863839 18 1.92857 18H16.0714C17.1362 18 18 17.1362 18 16.0714V1.92857C18 0.863839 17.1362 0 16.0714 0ZM14.1067 6.38036C14.1147 6.49286 14.1147 6.60938 14.1147 6.72188C14.1147 10.2054 11.4629 14.2192 6.61741 14.2192C5.12277 14.2192 3.73661 13.7853 2.57143 13.0379C2.78437 13.0621 2.98929 13.0701 3.20625 13.0701C4.43973 13.0701 5.57277 12.6522 6.47679 11.9451C5.31964 11.921 4.34732 11.1616 4.01384 10.117C4.41964 10.1772 4.78527 10.1772 5.20312 10.0688C3.99777 9.82366 3.09375 8.76295 3.09375 7.48125V7.44911C3.4433 7.64598 3.85312 7.76652 4.28304 7.78259C3.9216 7.54217 3.62531 7.21602 3.42059 6.83323C3.21588 6.45044 3.10911 6.02293 3.10982 5.58884C3.10982 5.09866 3.23839 4.64866 3.46741 4.25893C4.76518 5.85804 6.71384 6.90268 8.89955 7.01518C8.52589 5.22723 9.86384 3.77679 11.471 3.77679C12.2304 3.77679 12.9134 4.0942 13.3955 4.60848C13.9902 4.49598 14.5607 4.275 15.067 3.97366C14.8701 4.58437 14.4563 5.09866 13.9098 5.42411C14.4402 5.36786 14.9545 5.2192 15.4286 5.01429C15.071 5.54063 14.621 6.0067 14.1067 6.38036Z" fill="#36FF7A"/>
</svg>
