<svg width="18" height="18" viewBox="0 0 18 18" fill="none" xmlns="http://www.w3.org/2000/svg">
<path d="M11.25 4.5C11.25 5.09674 11.0129 5.66903 10.591 6.09099C10.169 6.51295 9.59674 6.75 9 6.75C8.40326 6.75 7.83097 6.51295 7.40901 6.09099C6.98705 5.66903 6.75 5.09674 6.75 4.5C6.75 3.90326 6.98705 3.33097 7.40901 2.90901C7.83097 2.48705 8.40326 2.25 9 2.25C9.59674 2.25 10.169 2.48705 10.591 2.90901C11.0129 3.33097 11.25 3.90326 11.25 4.5ZM3.9375 6.75C4.38505 6.75 4.81428 6.57221 5.13074 6.25574C5.44721 5.93928 5.625 5.51005 5.625 5.0625C5.625 4.61495 5.44721 4.18572 5.13074 3.86926C4.81428 3.55279 4.38505 3.375 3.9375 3.375C3.48995 3.375 3.06073 3.55279 2.74426 3.86926C2.42779 4.18572 2.25 4.61495 2.25 5.0625C2.25 5.51005 2.42779 5.93928 2.74426 6.25574C3.06073 6.57221 3.48995 6.75 3.9375 6.75ZM14.0625 6.75C14.5101 6.75 14.9393 6.57221 15.2557 6.25574C15.5722 5.93928 15.75 5.51005 15.75 5.0625C15.75 4.61495 15.5722 4.18572 15.2557 3.86926C14.9393 3.55279 14.5101 3.375 14.0625 3.375C13.6149 3.375 13.1857 3.55279 12.8693 3.86926C12.5528 4.18572 12.375 4.61495 12.375 5.0625C12.375 5.51005 12.5528 5.93928 12.8693 6.25574C13.1857 6.57221 13.6149 6.75 14.0625 6.75ZM5.74988 8.45156C5.8418 8.27749 5.97949 8.13181 6.14809 8.03021C6.3167 7.92861 6.50984 7.87494 6.70669 7.875H11.2933C11.5802 7.875 11.8553 7.98896 12.0582 8.19182C12.261 8.39467 12.375 8.66981 12.375 8.95669V12.375C12.372 13.202 12.0657 13.9992 11.514 14.6153C10.9623 15.2314 10.2037 15.6237 9.38207 15.7177C8.56041 15.8117 7.73283 15.6009 7.05629 15.1252C6.37974 14.6496 5.90127 13.9422 5.71163 13.1372C5.65397 12.8872 5.62491 12.6315 5.625 12.375V8.95669C5.625 8.77444 5.67 8.60231 5.74988 8.45156ZM4.78125 8.95669C4.78125 8.77669 4.806 8.60231 4.85213 8.4375H2.25C2.10082 8.4375 1.95774 8.49676 1.85225 8.60225C1.74676 8.70774 1.6875 8.85082 1.6875 9V11.8125C1.68742 12.2036 1.78928 12.588 1.98306 12.9277C2.17683 13.2675 2.45581 13.5508 2.7925 13.7499C3.12918 13.9489 3.51193 14.0567 3.90299 14.0627C4.29406 14.0687 4.67993 13.9727 5.02256 13.7841C4.86242 13.3316 4.78081 12.855 4.78125 12.375V8.95669ZM13.2188 12.375C13.2192 12.855 13.1376 13.3316 12.9774 13.7841C13.3201 13.9727 13.7059 14.0687 14.097 14.0627C14.4881 14.0567 14.8708 13.9489 15.2075 13.7499C15.5442 13.5508 15.8232 13.2675 16.0169 12.9277C16.2107 12.588 16.3126 12.2036 16.3125 11.8125V9C16.3125 8.85082 16.2532 8.70774 16.1477 8.60225C16.0423 8.49676 15.8992 8.4375 15.75 8.4375H13.1479C13.194 8.60288 13.2188 8.77669 13.2188 8.95669V12.375Z" fill="#898989"/>
</svg>
