<svg width="18" height="18" viewBox="0 0 18 18" fill="none" xmlns="http://www.w3.org/2000/svg">
<path d="M13.5 9.13501L12.375 10.365L13.875 12H4.125L5.625 10.365L4.5 9.13501L2.25 11.5875V15C2.25 15.825 2.925 16.5 3.75 16.5H14.25C15.075 16.5 15.75 15.825 15.75 15V11.595L13.5 9.13501Z" fill="#898989"/>
<path d="M7.94262 10.815C8.52762 11.4075 9.48012 11.415 10.0726 10.8225L13.8076 7.08753C14.3926 6.50253 14.3926 5.55003 13.8076 4.96503L11.1526 2.31753C10.5676 1.73253 9.61512 1.73253 9.03012 2.31753L5.31762 6.03003C4.73262 6.61503 4.73262 7.55253 5.31012 8.14503L7.94262 10.815ZM10.0951 3.37503L12.7426 6.02253L9.03762 9.72753L6.39012 7.08003L10.0951 3.37503Z" fill="#898989"/>
</svg>
