<svg width="1440" height="800" viewBox="0 0 1440 800" fill="none" xmlns="http://www.w3.org/2000/svg">
<g clip-path="url(#clip0)">
<path fill-rule="evenodd" clip-rule="evenodd" d="M763.855 127.707C765.983 127.707 767.708 125.982 767.708 123.854C767.708 121.725 765.983 120 763.855 120C761.726 120 760.001 121.725 760.001 123.854C760.001 125.982 761.726 127.707 763.855 127.707ZM833.22 127.707C835.348 127.707 837.073 125.982 837.073 123.854C837.073 121.725 835.348 120 833.22 120C831.091 120 829.366 121.725 829.366 123.854C829.366 125.982 831.091 127.707 833.22 127.707ZM906.438 123.854C906.438 125.982 904.713 127.707 902.585 127.707C900.456 127.707 898.731 125.982 898.731 123.854C898.731 121.725 900.456 120 902.585 120C904.713 120 906.438 121.725 906.438 123.854ZM971.953 127.707C974.081 127.707 975.806 125.982 975.806 123.854C975.806 121.725 974.081 120 971.953 120C969.824 120 968.099 121.725 968.099 123.854C968.099 125.982 969.824 127.707 971.953 127.707ZM1045.17 123.854C1045.17 125.982 1043.45 127.707 1041.32 127.707C1039.19 127.707 1037.46 125.982 1037.46 123.854C1037.46 121.725 1039.19 120 1041.32 120C1043.45 120 1045.17 121.725 1045.17 123.854ZM1110.68 127.707C1112.81 127.707 1114.54 125.982 1114.54 123.854C1114.54 121.725 1112.81 120 1110.68 120C1108.56 120 1106.83 121.725 1106.83 123.854C1106.83 125.982 1108.56 127.707 1110.68 127.707ZM1183.9 123.854C1183.9 125.982 1182.18 127.707 1180.05 127.707C1177.92 127.707 1176.19 125.982 1176.19 123.854C1176.19 121.725 1177.92 120 1180.05 120C1182.18 120 1183.9 121.725 1183.9 123.854ZM1249.41 127.707C1251.54 127.707 1253.27 125.982 1253.27 123.854C1253.27 121.725 1251.54 120 1249.41 120C1247.29 120 1245.56 121.725 1245.56 123.854C1245.56 125.982 1247.29 127.707 1249.41 127.707ZM1322.63 123.854C1322.63 125.982 1320.91 127.707 1318.78 127.707C1316.65 127.707 1314.93 125.982 1314.93 123.854C1314.93 121.725 1316.65 120 1318.78 120C1320.91 120 1322.63 121.725 1322.63 123.854ZM1388.15 127.707C1390.27 127.707 1392 125.982 1392 123.854C1392 121.725 1390.27 120 1388.15 120C1386.02 120 1384.29 121.725 1384.29 123.854C1384.29 125.982 1386.02 127.707 1388.15 127.707ZM767.707 193.219C767.707 195.348 765.982 197.073 763.854 197.073C761.725 197.073 760 195.348 760 193.219C760 191.091 761.725 189.366 763.854 189.366C765.982 189.366 767.707 191.091 767.707 193.219ZM833.22 197.073C835.348 197.073 837.073 195.348 837.073 193.219C837.073 191.091 835.348 189.366 833.22 189.366C831.091 189.366 829.366 191.091 829.366 193.219C829.366 195.348 831.091 197.073 833.22 197.073ZM906.438 193.219C906.438 195.348 904.713 197.073 902.585 197.073C900.456 197.073 898.731 195.348 898.731 193.219C898.731 191.091 900.456 189.366 902.585 189.366C904.713 189.366 906.438 191.091 906.438 193.219ZM971.953 197.073C974.081 197.073 975.806 195.348 975.806 193.219C975.806 191.091 974.081 189.366 971.953 189.366C969.824 189.366 968.099 191.091 968.099 193.219C968.099 195.348 969.824 197.073 971.953 197.073ZM1045.17 193.219C1045.17 195.348 1043.45 197.073 1041.32 197.073C1039.19 197.073 1037.46 195.348 1037.46 193.219C1037.46 191.091 1039.19 189.366 1041.32 189.366C1043.45 189.366 1045.17 191.091 1045.17 193.219ZM1110.68 197.073C1112.81 197.073 1114.54 195.348 1114.54 193.219C1114.54 191.091 1112.81 189.366 1110.68 189.366C1108.56 189.366 1106.83 191.091 1106.83 193.219C1106.83 195.348 1108.56 197.073 1110.68 197.073ZM1183.9 193.219C1183.9 195.348 1182.18 197.073 1180.05 197.073C1177.92 197.073 1176.19 195.348 1176.19 193.219C1176.19 191.091 1177.92 189.366 1180.05 189.366C1182.18 189.366 1183.9 191.091 1183.9 193.219ZM1249.41 197.073C1251.54 197.073 1253.27 195.348 1253.27 193.219C1253.27 191.091 1251.54 189.366 1249.41 189.366C1247.29 189.366 1245.56 191.091 1245.56 193.219C1245.56 195.348 1247.29 197.073 1249.41 197.073ZM1322.63 193.219C1322.63 195.348 1320.91 197.073 1318.78 197.073C1316.65 197.073 1314.93 195.348 1314.93 193.219C1314.93 191.091 1316.65 189.366 1318.78 189.366C1320.91 189.366 1322.63 191.091 1322.63 193.219ZM1388.15 197.073C1390.27 197.073 1392 195.348 1392 193.219C1392 191.091 1390.27 189.366 1388.15 189.366C1386.02 189.366 1384.29 191.091 1384.29 193.219C1384.29 195.348 1386.02 197.073 1388.15 197.073ZM767.707 262.586C767.707 264.714 765.982 266.439 763.854 266.439C761.725 266.439 760 264.714 760 262.586C760 260.457 761.725 258.732 763.854 258.732C765.982 258.732 767.707 260.457 767.707 262.586ZM833.22 266.439C835.348 266.439 837.073 264.714 837.073 262.586C837.073 260.457 835.348 258.732 833.22 258.732C831.091 258.732 829.366 260.457 829.366 262.586C829.366 264.714 831.091 266.439 833.22 266.439ZM906.438 262.586C906.438 264.714 904.713 266.439 902.585 266.439C900.456 266.439 898.731 264.714 898.731 262.586C898.731 260.457 900.456 258.732 902.585 258.732C904.713 258.732 906.438 260.457 906.438 262.586ZM971.953 266.439C974.081 266.439 975.806 264.714 975.806 262.586C975.806 260.457 974.081 258.732 971.953 258.732C969.824 258.732 968.099 260.457 968.099 262.586C968.099 264.714 969.824 266.439 971.953 266.439ZM1045.17 262.586C1045.17 264.714 1043.45 266.439 1041.32 266.439C1039.19 266.439 1037.46 264.714 1037.46 262.586C1037.46 260.457 1039.19 258.732 1041.32 258.732C1043.45 258.732 1045.17 260.457 1045.17 262.586ZM1110.68 266.439C1112.81 266.439 1114.54 264.714 1114.54 262.586C1114.54 260.457 1112.81 258.732 1110.68 258.732C1108.56 258.732 1106.83 260.457 1106.83 262.586C1106.83 264.714 1108.56 266.439 1110.68 266.439ZM1183.9 262.586C1183.9 264.714 1182.18 266.439 1180.05 266.439C1177.92 266.439 1176.19 264.714 1176.19 262.586C1176.19 260.457 1177.92 258.732 1180.05 258.732C1182.18 258.732 1183.9 260.457 1183.9 262.586ZM1249.41 266.439C1251.54 266.439 1253.27 264.714 1253.27 262.586C1253.27 260.457 1251.54 258.732 1249.41 258.732C1247.29 258.732 1245.56 260.457 1245.56 262.586C1245.56 264.714 1247.29 266.439 1249.41 266.439ZM1322.63 262.586C1322.63 264.714 1320.91 266.439 1318.78 266.439C1316.65 266.439 1314.93 264.714 1314.93 262.586C1314.93 260.457 1316.65 258.732 1318.78 258.732C1320.91 258.732 1322.63 260.457 1322.63 262.586ZM1388.15 266.439C1390.27 266.439 1392 264.714 1392 262.586C1392 260.457 1390.27 258.732 1388.15 258.732C1386.02 258.732 1384.29 260.457 1384.29 262.586C1384.29 264.714 1386.02 266.439 1388.15 266.439ZM767.707 331.951C767.707 334.079 765.982 335.804 763.854 335.804C761.725 335.804 760 334.079 760 331.951C760 329.822 761.725 328.097 763.854 328.097C765.982 328.097 767.707 329.822 767.707 331.951ZM833.22 335.804C835.348 335.804 837.073 334.079 837.073 331.951C837.073 329.822 835.348 328.097 833.22 328.097C831.091 328.097 829.366 329.822 829.366 331.951C829.366 334.079 831.091 335.804 833.22 335.804ZM906.438 331.951C906.438 334.079 904.713 335.804 902.585 335.804C900.456 335.804 898.731 334.079 898.731 331.951C898.731 329.822 900.456 328.097 902.585 328.097C904.713 328.097 906.438 329.822 906.438 331.951ZM971.953 335.804C974.081 335.804 975.806 334.079 975.806 331.951C975.806 329.822 974.081 328.097 971.953 328.097C969.824 328.097 968.099 329.822 968.099 331.951C968.099 334.079 969.824 335.804 971.953 335.804ZM1045.17 331.951C1045.17 334.079 1043.45 335.804 1041.32 335.804C1039.19 335.804 1037.46 334.079 1037.46 331.951C1037.46 329.822 1039.19 328.097 1041.32 328.097C1043.45 328.097 1045.17 329.822 1045.17 331.951ZM1110.68 335.804C1112.81 335.804 1114.54 334.079 1114.54 331.951C1114.54 329.822 1112.81 328.097 1110.68 328.097C1108.56 328.097 1106.83 329.822 1106.83 331.951C1106.83 334.079 1108.56 335.804 1110.68 335.804ZM1183.9 331.951C1183.9 334.079 1182.18 335.804 1180.05 335.804C1177.92 335.804 1176.19 334.079 1176.19 331.951C1176.19 329.822 1177.92 328.097 1180.05 328.097C1182.18 328.097 1183.9 329.822 1183.9 331.951ZM1249.41 335.804C1251.54 335.804 1253.27 334.079 1253.27 331.951C1253.27 329.822 1251.54 328.097 1249.41 328.097C1247.29 328.097 1245.56 329.822 1245.56 331.951C1245.56 334.079 1247.29 335.804 1249.41 335.804ZM1322.63 331.951C1322.63 334.079 1320.91 335.804 1318.78 335.804C1316.65 335.804 1314.93 334.079 1314.93 331.951C1314.93 329.822 1316.65 328.097 1318.78 328.097C1320.91 328.097 1322.63 329.822 1322.63 331.951ZM1388.15 335.804C1390.27 335.804 1392 334.079 1392 331.951C1392 329.822 1390.27 328.097 1388.15 328.097C1386.02 328.097 1384.29 329.822 1384.29 331.951C1384.29 334.079 1386.02 335.804 1388.15 335.804ZM767.707 401.317C767.707 403.445 765.982 405.171 763.854 405.171C761.725 405.171 760 403.445 760 401.317C760 399.189 761.725 397.463 763.854 397.463C765.982 397.463 767.707 399.189 767.707 401.317ZM833.22 405.171C835.348 405.171 837.073 403.445 837.073 401.317C837.073 399.189 835.348 397.463 833.22 397.463C831.091 397.463 829.366 399.189 829.366 401.317C829.366 403.445 831.091 405.171 833.22 405.171ZM906.438 401.317C906.438 403.445 904.713 405.171 902.585 405.171C900.456 405.171 898.731 403.445 898.731 401.317C898.731 399.189 900.456 397.463 902.585 397.463C904.713 397.463 906.438 399.189 906.438 401.317ZM971.953 405.171C974.081 405.171 975.806 403.445 975.806 401.317C975.806 399.189 974.081 397.463 971.953 397.463C969.824 397.463 968.099 399.189 968.099 401.317C968.099 403.445 969.824 405.171 971.953 405.171ZM1045.17 401.317C1045.17 403.445 1043.45 405.171 1041.32 405.171C1039.19 405.171 1037.46 403.445 1037.46 401.317C1037.46 399.189 1039.19 397.463 1041.32 397.463C1043.45 397.463 1045.17 399.189 1045.17 401.317ZM1110.68 405.171C1112.81 405.171 1114.54 403.445 1114.54 401.317C1114.54 399.189 1112.81 397.463 1110.68 397.463C1108.56 397.463 1106.83 399.189 1106.83 401.317C1106.83 403.445 1108.56 405.171 1110.68 405.171ZM1183.9 401.317C1183.9 403.445 1182.18 405.171 1180.05 405.171C1177.92 405.171 1176.19 403.445 1176.19 401.317C1176.19 399.189 1177.92 397.463 1180.05 397.463C1182.18 397.463 1183.9 399.189 1183.9 401.317ZM1249.41 405.171C1251.54 405.171 1253.27 403.445 1253.27 401.317C1253.27 399.189 1251.54 397.463 1249.41 397.463C1247.29 397.463 1245.56 399.189 1245.56 401.317C1245.56 403.445 1247.29 405.171 1249.41 405.171ZM1322.63 401.317C1322.63 403.445 1320.91 405.171 1318.78 405.171C1316.65 405.171 1314.93 403.445 1314.93 401.317C1314.93 399.189 1316.65 397.463 1318.78 397.463C1320.91 397.463 1322.63 399.189 1322.63 401.317ZM1388.15 405.171C1390.27 405.171 1392 403.445 1392 401.317C1392 399.189 1390.27 397.463 1388.15 397.463C1386.02 397.463 1384.29 399.189 1384.29 401.317C1384.29 403.445 1386.02 405.171 1388.15 405.171ZM767.707 470.683C767.707 472.812 765.982 474.537 763.854 474.537C761.725 474.537 760 472.812 760 470.683C760 468.555 761.725 466.83 763.854 466.83C765.982 466.83 767.707 468.555 767.707 470.683ZM833.22 474.537C835.348 474.537 837.073 472.812 837.073 470.683C837.073 468.555 835.348 466.83 833.22 466.83C831.091 466.83 829.366 468.555 829.366 470.683C829.366 472.812 831.091 474.537 833.22 474.537ZM906.438 470.683C906.438 472.812 904.713 474.537 902.585 474.537C900.456 474.537 898.731 472.812 898.731 470.683C898.731 468.555 900.456 466.83 902.585 466.83C904.713 466.83 906.438 468.555 906.438 470.683ZM971.953 474.537C974.081 474.537 975.806 472.812 975.806 470.683C975.806 468.555 974.081 466.83 971.953 466.83C969.824 466.83 968.099 468.555 968.099 470.683C968.099 472.812 969.824 474.537 971.953 474.537ZM1045.17 470.683C1045.17 472.812 1043.45 474.537 1041.32 474.537C1039.19 474.537 1037.46 472.812 1037.46 470.683C1037.46 468.555 1039.19 466.83 1041.32 466.83C1043.45 466.83 1045.17 468.555 1045.17 470.683ZM1110.68 474.537C1112.81 474.537 1114.54 472.812 1114.54 470.683C1114.54 468.555 1112.81 466.83 1110.68 466.83C1108.56 466.83 1106.83 468.555 1106.83 470.683C1106.83 472.812 1108.56 474.537 1110.68 474.537ZM1183.9 470.683C1183.9 472.812 1182.18 474.537 1180.05 474.537C1177.92 474.537 1176.19 472.812 1176.19 470.683C1176.19 468.555 1177.92 466.83 1180.05 466.83C1182.18 466.83 1183.9 468.555 1183.9 470.683ZM1249.41 474.537C1251.54 474.537 1253.27 472.812 1253.27 470.683C1253.27 468.555 1251.54 466.83 1249.41 466.83C1247.29 466.83 1245.56 468.555 1245.56 470.683C1245.56 472.812 1247.29 474.537 1249.41 474.537ZM1322.63 470.683C1322.63 472.812 1320.91 474.537 1318.78 474.537C1316.65 474.537 1314.93 472.812 1314.93 470.683C1314.93 468.555 1316.65 466.83 1318.78 466.83C1320.91 466.83 1322.63 468.555 1322.63 470.683ZM1388.15 474.537C1390.27 474.537 1392 472.812 1392 470.683C1392 468.555 1390.27 466.83 1388.15 466.83C1386.02 466.83 1384.29 468.555 1384.29 470.683C1384.29 472.812 1386.02 474.537 1388.15 474.537ZM767.707 540.049C767.707 542.177 765.982 543.902 763.854 543.902C761.725 543.902 760 542.177 760 540.049C760 537.92 761.725 536.195 763.854 536.195C765.982 536.195 767.707 537.92 767.707 540.049ZM833.22 543.902C835.348 543.902 837.073 542.177 837.073 540.048C837.073 537.92 835.348 536.195 833.22 536.195C831.091 536.195 829.366 537.92 829.366 540.048C829.366 542.177 831.091 543.902 833.22 543.902ZM906.438 540.048C906.438 542.177 904.713 543.902 902.585 543.902C900.456 543.902 898.731 542.177 898.731 540.048C898.731 537.92 900.456 536.195 902.585 536.195C904.713 536.195 906.438 537.92 906.438 540.048ZM971.953 543.902C974.081 543.902 975.806 542.177 975.806 540.048C975.806 537.92 974.081 536.195 971.953 536.195C969.824 536.195 968.099 537.92 968.099 540.048C968.099 542.177 969.824 543.902 971.953 543.902ZM1045.17 540.048C1045.17 542.177 1043.45 543.902 1041.32 543.902C1039.19 543.902 1037.46 542.177 1037.46 540.048C1037.46 537.92 1039.19 536.195 1041.32 536.195C1043.45 536.195 1045.17 537.92 1045.17 540.048ZM1110.68 543.902C1112.81 543.902 1114.54 542.177 1114.54 540.048C1114.54 537.92 1112.81 536.195 1110.68 536.195C1108.56 536.195 1106.83 537.92 1106.83 540.048C1106.83 542.177 1108.56 543.902 1110.68 543.902ZM1183.9 540.048C1183.9 542.177 1182.18 543.902 1180.05 543.902C1177.92 543.902 1176.19 542.177 1176.19 540.048C1176.19 537.92 1177.92 536.195 1180.05 536.195C1182.18 536.195 1183.9 537.92 1183.9 540.048ZM1249.41 543.902C1251.54 543.902 1253.27 542.177 1253.27 540.048C1253.27 537.92 1251.54 536.195 1249.41 536.195C1247.29 536.195 1245.56 537.92 1245.56 540.048C1245.56 542.177 1247.29 543.902 1249.41 543.902ZM1322.63 540.048C1322.63 542.177 1320.91 543.902 1318.78 543.902C1316.65 543.902 1314.93 542.177 1314.93 540.048C1314.93 537.92 1316.65 536.195 1318.78 536.195C1320.91 536.195 1322.63 537.92 1322.63 540.048ZM1388.15 543.902C1390.27 543.902 1392 542.177 1392 540.048C1392 537.92 1390.27 536.195 1388.15 536.195C1386.02 536.195 1384.29 537.92 1384.29 540.048C1384.29 542.177 1386.02 543.902 1388.15 543.902ZM767.707 609.415C767.707 611.543 765.982 613.268 763.854 613.268C761.725 613.268 760 611.543 760 609.415C760 607.286 761.725 605.561 763.854 605.561C765.982 605.561 767.707 607.286 767.707 609.415ZM833.22 613.268C835.348 613.268 837.073 611.543 837.073 609.415C837.073 607.286 835.348 605.561 833.22 605.561C831.091 605.561 829.366 607.286 829.366 609.415C829.366 611.543 831.091 613.268 833.22 613.268ZM906.438 609.415C906.438 611.543 904.713 613.268 902.585 613.268C900.456 613.268 898.731 611.543 898.731 609.415C898.731 607.286 900.456 605.561 902.585 605.561C904.713 605.561 906.438 607.286 906.438 609.415ZM971.953 613.268C974.081 613.268 975.806 611.543 975.806 609.415C975.806 607.286 974.081 605.561 971.953 605.561C969.824 605.561 968.099 607.286 968.099 609.415C968.099 611.543 969.824 613.268 971.953 613.268ZM1045.17 609.415C1045.17 611.543 1043.45 613.268 1041.32 613.268C1039.19 613.268 1037.46 611.543 1037.46 609.415C1037.46 607.286 1039.19 605.561 1041.32 605.561C1043.45 605.561 1045.17 607.286 1045.17 609.415ZM1110.68 613.268C1112.81 613.268 1114.54 611.543 1114.54 609.415C1114.54 607.286 1112.81 605.561 1110.68 605.561C1108.56 605.561 1106.83 607.286 1106.83 609.415C1106.83 611.543 1108.56 613.268 1110.68 613.268ZM1183.9 609.415C1183.9 611.543 1182.18 613.268 1180.05 613.268C1177.92 613.268 1176.19 611.543 1176.19 609.415C1176.19 607.286 1177.92 605.561 1180.05 605.561C1182.18 605.561 1183.9 607.286 1183.9 609.415ZM1249.41 613.268C1251.54 613.268 1253.27 611.543 1253.27 609.415C1253.27 607.286 1251.54 605.561 1249.41 605.561C1247.29 605.561 1245.56 607.286 1245.56 609.415C1245.56 611.543 1247.29 613.268 1249.41 613.268ZM1322.63 609.415C1322.63 611.543 1320.91 613.268 1318.78 613.268C1316.65 613.268 1314.93 611.543 1314.93 609.415C1314.93 607.286 1316.65 605.561 1318.78 605.561C1320.91 605.561 1322.63 607.286 1322.63 609.415ZM1388.15 613.268C1390.27 613.268 1392 611.543 1392 609.415C1392 607.286 1390.27 605.561 1388.15 605.561C1386.02 605.561 1384.29 607.286 1384.29 609.415C1384.29 611.543 1386.02 613.268 1388.15 613.268ZM767.707 678.781C767.707 680.909 765.982 682.635 763.854 682.635C761.725 682.635 760 680.909 760 678.781C760 676.653 761.725 674.927 763.854 674.927C765.982 674.927 767.707 676.653 767.707 678.781ZM833.22 682.635C835.348 682.635 837.073 680.909 837.073 678.781C837.073 676.653 835.348 674.927 833.22 674.927C831.091 674.927 829.366 676.653 829.366 678.781C829.366 680.909 831.091 682.635 833.22 682.635ZM906.438 678.781C906.438 680.909 904.713 682.635 902.585 682.635C900.456 682.635 898.731 680.909 898.731 678.781C898.731 676.653 900.456 674.927 902.585 674.927C904.713 674.927 906.438 676.653 906.438 678.781ZM971.953 682.635C974.081 682.635 975.806 680.909 975.806 678.781C975.806 676.653 974.081 674.927 971.953 674.927C969.824 674.927 968.099 676.653 968.099 678.781C968.099 680.909 969.824 682.635 971.953 682.635ZM1045.17 678.781C1045.17 680.909 1043.45 682.635 1041.32 682.635C1039.19 682.635 1037.46 680.909 1037.46 678.781C1037.46 676.653 1039.19 674.927 1041.32 674.927C1043.45 674.927 1045.17 676.653 1045.17 678.781ZM1110.68 682.635C1112.81 682.635 1114.54 680.909 1114.54 678.781C1114.54 676.653 1112.81 674.927 1110.68 674.927C1108.56 674.927 1106.83 676.653 1106.83 678.781C1106.83 680.909 1108.56 682.635 1110.68 682.635ZM1183.9 678.781C1183.9 680.909 1182.18 682.635 1180.05 682.635C1177.92 682.635 1176.19 680.909 1176.19 678.781C1176.19 676.653 1177.92 674.927 1180.05 674.927C1182.18 674.927 1183.9 676.653 1183.9 678.781ZM1249.41 682.635C1251.54 682.635 1253.27 680.909 1253.27 678.781C1253.27 676.653 1251.54 674.927 1249.41 674.927C1247.29 674.927 1245.56 676.653 1245.56 678.781C1245.56 680.909 1247.29 682.635 1249.41 682.635ZM1322.63 678.781C1322.63 680.909 1320.91 682.635 1318.78 682.635C1316.65 682.635 1314.93 680.909 1314.93 678.781C1314.93 676.653 1316.65 674.927 1318.78 674.927C1320.91 674.927 1322.63 676.653 1322.63 678.781ZM1388.15 682.635C1390.27 682.635 1392 680.909 1392 678.781C1392 676.653 1390.27 674.927 1388.15 674.927C1386.02 674.927 1384.29 676.653 1384.29 678.781C1384.29 680.909 1386.02 682.635 1388.15 682.635ZM767.707 748.146C767.707 750.274 765.982 752 763.854 752C761.725 752 760 750.274 760 748.146C760 746.018 761.725 744.292 763.854 744.292C765.982 744.292 767.707 746.018 767.707 748.146ZM833.22 752C835.348 752 837.073 750.274 837.073 748.146C837.073 746.018 835.348 744.292 833.22 744.292C831.091 744.292 829.366 746.018 829.366 748.146C829.366 750.274 831.091 752 833.22 752ZM906.438 748.146C906.438 750.274 904.713 752 902.585 752C900.456 752 898.731 750.274 898.731 748.146C898.731 746.018 900.456 744.292 902.585 744.292C904.713 744.292 906.438 746.018 906.438 748.146ZM971.953 752C974.081 752 975.806 750.274 975.806 748.146C975.806 746.018 974.081 744.292 971.953 744.292C969.824 744.292 968.099 746.018 968.099 748.146C968.099 750.274 969.824 752 971.953 752ZM1045.17 748.146C1045.17 750.274 1043.45 752 1041.32 752C1039.19 752 1037.46 750.274 1037.46 748.146C1037.46 746.018 1039.19 744.292 1041.32 744.292C1043.45 744.292 1045.17 746.018 1045.17 748.146ZM1110.68 752C1112.81 752 1114.54 750.274 1114.54 748.146C1114.54 746.018 1112.81 744.292 1110.68 744.292C1108.56 744.292 1106.83 746.018 1106.83 748.146C1106.83 750.274 1108.56 752 1110.68 752ZM1183.9 748.146C1183.9 750.274 1182.18 752 1180.05 752C1177.92 752 1176.19 750.274 1176.19 748.146C1176.19 746.018 1177.92 744.292 1180.05 744.292C1182.18 744.292 1183.9 746.018 1183.9 748.146ZM1249.41 752C1251.54 752 1253.27 750.274 1253.27 748.146C1253.27 746.018 1251.54 744.292 1249.41 744.292C1247.29 744.292 1245.56 746.018 1245.56 748.146C1245.56 750.274 1247.29 752 1249.41 752ZM1322.63 748.146C1322.63 750.274 1320.91 752 1318.78 752C1316.65 752 1314.93 750.274 1314.93 748.146C1314.93 746.018 1316.65 744.292 1318.78 744.292C1320.91 744.292 1322.63 746.018 1322.63 748.146ZM1388.15 752C1390.27 752 1392 750.274 1392 748.146C1392 746.018 1390.27 744.292 1388.15 744.292C1386.02 744.292 1384.29 746.018 1384.29 748.146C1384.29 750.274 1386.02 752 1388.15 752Z" fill="url(#paint0_radial)"/>
<path fill-rule="evenodd" clip-rule="evenodd" d="M347.855 405.707C349.983 405.707 351.708 403.982 351.708 401.854C351.708 399.725 349.983 398 347.855 398C345.726 398 344.001 399.725 344.001 401.854C344.001 403.982 345.726 405.707 347.855 405.707ZM417.22 405.707C419.348 405.707 421.073 403.982 421.073 401.854C421.073 399.725 419.348 398 417.22 398C415.091 398 413.366 399.725 413.366 401.854C413.366 403.982 415.091 405.707 417.22 405.707ZM490.438 401.854C490.438 403.982 488.713 405.707 486.585 405.707C484.456 405.707 482.731 403.982 482.731 401.854C482.731 399.725 484.456 398 486.585 398C488.713 398 490.438 399.725 490.438 401.854ZM555.953 405.707C558.081 405.707 559.806 403.982 559.806 401.854C559.806 399.725 558.081 398 555.953 398C553.824 398 552.099 399.725 552.099 401.854C552.099 403.982 553.824 405.707 555.953 405.707ZM629.171 401.854C629.171 403.982 627.446 405.707 625.318 405.707C623.189 405.707 621.464 403.982 621.464 401.854C621.464 399.725 623.189 398 625.318 398C627.446 398 629.171 399.725 629.171 401.854ZM694.684 405.707C696.812 405.707 698.538 403.982 698.538 401.854C698.538 399.725 696.812 398 694.684 398C692.556 398 690.83 399.725 690.83 401.854C690.83 403.982 692.556 405.707 694.684 405.707ZM767.902 401.854C767.902 403.982 766.176 405.707 764.048 405.707C761.92 405.707 760.194 403.982 760.194 401.854C760.194 399.725 761.92 398 764.048 398C766.176 398 767.902 399.725 767.902 401.854ZM833.415 405.707C835.543 405.707 837.269 403.982 837.269 401.854C837.269 399.725 835.543 398 833.415 398C831.287 398 829.561 399.725 829.561 401.854C829.561 403.982 831.287 405.707 833.415 405.707ZM906.634 401.854C906.634 403.982 904.909 405.707 902.78 405.707C900.652 405.707 898.927 403.982 898.927 401.854C898.927 399.725 900.652 398 902.78 398C904.909 398 906.634 399.725 906.634 401.854ZM972.146 405.707C974.274 405.707 976 403.982 976 401.854C976 399.725 974.274 398 972.146 398C970.018 398 968.292 399.725 968.292 401.854C968.292 403.982 970.018 405.707 972.146 405.707ZM351.707 471.219C351.707 473.348 349.982 475.073 347.854 475.073C345.725 475.073 344 473.348 344 471.219C344 469.091 345.725 467.366 347.854 467.366C349.982 467.366 351.707 469.091 351.707 471.219ZM417.22 475.073C419.348 475.073 421.073 473.348 421.073 471.219C421.073 469.091 419.348 467.366 417.22 467.366C415.091 467.366 413.366 469.091 413.366 471.219C413.366 473.348 415.091 475.073 417.22 475.073ZM490.438 471.219C490.438 473.348 488.713 475.073 486.585 475.073C484.456 475.073 482.731 473.348 482.731 471.219C482.731 469.091 484.456 467.366 486.585 467.366C488.713 467.366 490.438 469.091 490.438 471.219ZM555.953 475.073C558.081 475.073 559.806 473.348 559.806 471.219C559.806 469.091 558.081 467.366 555.953 467.366C553.824 467.366 552.099 469.091 552.099 471.219C552.099 473.348 553.824 475.073 555.953 475.073ZM629.171 471.219C629.171 473.348 627.446 475.073 625.318 475.073C623.189 475.073 621.464 473.348 621.464 471.219C621.464 469.091 623.189 467.366 625.318 467.366C627.446 467.366 629.171 469.091 629.171 471.219ZM694.684 475.073C696.812 475.073 698.538 473.348 698.538 471.219C698.538 469.091 696.812 467.366 694.684 467.366C692.556 467.366 690.83 469.091 690.83 471.219C690.83 473.348 692.556 475.073 694.684 475.073ZM767.902 471.219C767.902 473.348 766.176 475.073 764.048 475.073C761.92 475.073 760.194 473.348 760.194 471.219C760.194 469.091 761.92 467.366 764.048 467.366C766.176 467.366 767.902 469.091 767.902 471.219ZM833.415 475.073C835.543 475.073 837.269 473.348 837.269 471.219C837.269 469.091 835.543 467.366 833.415 467.366C831.287 467.366 829.561 469.091 829.561 471.219C829.561 473.348 831.287 475.073 833.415 475.073ZM906.634 471.219C906.634 473.348 904.909 475.073 902.78 475.073C900.652 475.073 898.927 473.348 898.927 471.219C898.927 469.091 900.652 467.366 902.78 467.366C904.909 467.366 906.634 469.091 906.634 471.219ZM972.146 475.073C974.274 475.073 976 473.348 976 471.219C976 469.091 974.274 467.366 972.146 467.366C970.018 467.366 968.292 469.091 968.292 471.219C968.292 473.348 970.018 475.073 972.146 475.073ZM351.707 540.586C351.707 542.714 349.982 544.439 347.854 544.439C345.725 544.439 344 542.714 344 540.586C344 538.457 345.725 536.732 347.854 536.732C349.982 536.732 351.707 538.457 351.707 540.586ZM417.22 544.439C419.348 544.439 421.073 542.714 421.073 540.586C421.073 538.457 419.348 536.732 417.22 536.732C415.091 536.732 413.366 538.457 413.366 540.586C413.366 542.714 415.091 544.439 417.22 544.439ZM490.438 540.586C490.438 542.714 488.713 544.439 486.585 544.439C484.456 544.439 482.731 542.714 482.731 540.586C482.731 538.457 484.456 536.732 486.585 536.732C488.713 536.732 490.438 538.457 490.438 540.586ZM555.953 544.439C558.081 544.439 559.806 542.714 559.806 540.586C559.806 538.457 558.081 536.732 555.953 536.732C553.824 536.732 552.099 538.457 552.099 540.586C552.099 542.714 553.824 544.439 555.953 544.439ZM629.171 540.586C629.171 542.714 627.446 544.439 625.318 544.439C623.189 544.439 621.464 542.714 621.464 540.586C621.464 538.457 623.189 536.732 625.318 536.732C627.446 536.732 629.171 538.457 629.171 540.586ZM694.684 544.439C696.812 544.439 698.538 542.714 698.538 540.586C698.538 538.457 696.812 536.732 694.684 536.732C692.556 536.732 690.83 538.457 690.83 540.586C690.83 542.714 692.556 544.439 694.684 544.439ZM767.902 540.586C767.902 542.714 766.176 544.439 764.048 544.439C761.92 544.439 760.194 542.714 760.194 540.586C760.194 538.457 761.92 536.732 764.048 536.732C766.176 536.732 767.902 538.457 767.902 540.586ZM833.415 544.439C835.543 544.439 837.269 542.714 837.269 540.586C837.269 538.457 835.543 536.732 833.415 536.732C831.287 536.732 829.561 538.457 829.561 540.586C829.561 542.714 831.287 544.439 833.415 544.439ZM906.634 540.586C906.634 542.714 904.909 544.439 902.78 544.439C900.652 544.439 898.927 542.714 898.927 540.586C898.927 538.457 900.652 536.732 902.78 536.732C904.909 536.732 906.634 538.457 906.634 540.586ZM972.146 544.439C974.274 544.439 976 542.714 976 540.586C976 538.457 974.274 536.732 972.146 536.732C970.018 536.732 968.292 538.457 968.292 540.586C968.292 542.714 970.018 544.439 972.146 544.439ZM351.707 609.951C351.707 612.079 349.982 613.804 347.854 613.804C345.725 613.804 344 612.079 344 609.951C344 607.822 345.725 606.097 347.854 606.097C349.982 606.097 351.707 607.822 351.707 609.951ZM417.22 613.804C419.348 613.804 421.073 612.079 421.073 609.951C421.073 607.822 419.348 606.097 417.22 606.097C415.091 606.097 413.366 607.822 413.366 609.951C413.366 612.079 415.091 613.804 417.22 613.804ZM490.438 609.951C490.438 612.079 488.713 613.804 486.585 613.804C484.456 613.804 482.731 612.079 482.731 609.951C482.731 607.822 484.456 606.097 486.585 606.097C488.713 606.097 490.438 607.822 490.438 609.951ZM555.953 613.804C558.081 613.804 559.806 612.079 559.806 609.951C559.806 607.822 558.081 606.097 555.953 606.097C553.824 606.097 552.099 607.822 552.099 609.951C552.099 612.079 553.824 613.804 555.953 613.804ZM629.171 609.951C629.171 612.079 627.446 613.804 625.318 613.804C623.189 613.804 621.464 612.079 621.464 609.951C621.464 607.822 623.189 606.097 625.318 606.097C627.446 606.097 629.171 607.822 629.171 609.951ZM694.684 613.804C696.812 613.804 698.538 612.079 698.538 609.951C698.538 607.822 696.812 606.097 694.684 606.097C692.556 606.097 690.83 607.822 690.83 609.951C690.83 612.079 692.556 613.804 694.684 613.804ZM767.902 609.951C767.902 612.079 766.176 613.804 764.048 613.804C761.92 613.804 760.194 612.079 760.194 609.951C760.194 607.822 761.92 606.097 764.048 606.097C766.176 606.097 767.902 607.822 767.902 609.951ZM833.415 613.804C835.543 613.804 837.269 612.079 837.269 609.951C837.269 607.822 835.543 606.097 833.415 606.097C831.287 606.097 829.561 607.822 829.561 609.951C829.561 612.079 831.287 613.804 833.415 613.804ZM906.634 609.951C906.634 612.079 904.909 613.804 902.78 613.804C900.652 613.804 898.927 612.079 898.927 609.951C898.927 607.822 900.652 606.097 902.78 606.097C904.909 606.097 906.634 607.822 906.634 609.951ZM972.146 613.804C974.274 613.804 976 612.079 976 609.951C976 607.822 974.274 606.097 972.146 606.097C970.018 606.097 968.292 607.822 968.292 609.951C968.292 612.079 970.018 613.804 972.146 613.804ZM351.707 679.317C351.707 681.445 349.982 683.171 347.854 683.171C345.725 683.171 344 681.445 344 679.317C344 677.189 345.725 675.463 347.854 675.463C349.982 675.463 351.707 677.189 351.707 679.317ZM417.22 683.171C419.348 683.171 421.073 681.445 421.073 679.317C421.073 677.189 419.348 675.463 417.22 675.463C415.091 675.463 413.366 677.189 413.366 679.317C413.366 681.445 415.091 683.171 417.22 683.171ZM490.438 679.317C490.438 681.445 488.713 683.171 486.585 683.171C484.456 683.171 482.731 681.445 482.731 679.317C482.731 677.189 484.456 675.463 486.585 675.463C488.713 675.463 490.438 677.189 490.438 679.317ZM555.953 683.171C558.081 683.171 559.806 681.445 559.806 679.317C559.806 677.189 558.081 675.463 555.953 675.463C553.824 675.463 552.099 677.189 552.099 679.317C552.099 681.445 553.824 683.171 555.953 683.171ZM629.171 679.317C629.171 681.445 627.446 683.171 625.318 683.171C623.189 683.171 621.464 681.445 621.464 679.317C621.464 677.189 623.189 675.463 625.318 675.463C627.446 675.463 629.171 677.189 629.171 679.317ZM694.684 683.171C696.812 683.171 698.538 681.445 698.538 679.317C698.538 677.189 696.812 675.463 694.684 675.463C692.556 675.463 690.83 677.189 690.83 679.317C690.83 681.445 692.556 683.171 694.684 683.171ZM767.902 679.317C767.902 681.445 766.176 683.171 764.048 683.171C761.92 683.171 760.194 681.445 760.194 679.317C760.194 677.189 761.92 675.463 764.048 675.463C766.176 675.463 767.902 677.189 767.902 679.317ZM833.415 683.171C835.543 683.171 837.269 681.445 837.269 679.317C837.269 677.189 835.543 675.463 833.415 675.463C831.287 675.463 829.561 677.189 829.561 679.317C829.561 681.445 831.287 683.171 833.415 683.171ZM906.634 679.317C906.634 681.445 904.909 683.171 902.78 683.171C900.652 683.171 898.927 681.445 898.927 679.317C898.927 677.189 900.652 675.463 902.78 675.463C904.909 675.463 906.634 677.189 906.634 679.317ZM972.146 683.171C974.274 683.171 976 681.445 976 679.317C976 677.189 974.274 675.463 972.146 675.463C970.018 675.463 968.292 677.189 968.292 679.317C968.292 681.445 970.018 683.171 972.146 683.171ZM351.707 748.683C351.707 750.812 349.982 752.537 347.854 752.537C345.725 752.537 344 750.812 344 748.683C344 746.555 345.725 744.83 347.854 744.83C349.982 744.83 351.707 746.555 351.707 748.683ZM417.22 752.537C419.348 752.537 421.073 750.812 421.073 748.683C421.073 746.555 419.348 744.83 417.22 744.83C415.091 744.83 413.366 746.555 413.366 748.683C413.366 750.812 415.091 752.537 417.22 752.537ZM490.438 748.683C490.438 750.812 488.713 752.537 486.585 752.537C484.456 752.537 482.731 750.812 482.731 748.683C482.731 746.555 484.456 744.83 486.585 744.83C488.713 744.83 490.438 746.555 490.438 748.683ZM555.953 752.537C558.081 752.537 559.806 750.812 559.806 748.683C559.806 746.555 558.081 744.83 555.953 744.83C553.824 744.83 552.099 746.555 552.099 748.683C552.099 750.812 553.824 752.537 555.953 752.537ZM629.171 748.683C629.171 750.812 627.446 752.537 625.318 752.537C623.189 752.537 621.464 750.812 621.464 748.683C621.464 746.555 623.189 744.83 625.318 744.83C627.446 744.83 629.171 746.555 629.171 748.683ZM694.684 752.537C696.812 752.537 698.538 750.812 698.538 748.683C698.538 746.555 696.812 744.83 694.684 744.83C692.556 744.83 690.83 746.555 690.83 748.683C690.83 750.812 692.556 752.537 694.684 752.537ZM767.902 748.683C767.902 750.812 766.176 752.537 764.048 752.537C761.92 752.537 760.194 750.812 760.194 748.683C760.194 746.555 761.92 744.83 764.048 744.83C766.176 744.83 767.902 746.555 767.902 748.683ZM833.415 752.537C835.543 752.537 837.269 750.812 837.269 748.683C837.269 746.555 835.543 744.83 833.415 744.83C831.287 744.83 829.561 746.555 829.561 748.683C829.561 750.812 831.287 752.537 833.415 752.537ZM906.634 748.683C906.634 750.812 904.909 752.537 902.78 752.537C900.652 752.537 898.927 750.812 898.927 748.683C898.927 746.555 900.652 744.83 902.78 744.83C904.909 744.83 906.634 746.555 906.634 748.683ZM972.146 752.537C974.274 752.537 976 750.812 976 748.683C976 746.555 974.274 744.83 972.146 744.83C970.018 744.83 968.292 746.555 968.292 748.683C968.292 750.812 970.018 752.537 972.146 752.537ZM351.707 818.049C351.707 820.177 349.982 821.902 347.854 821.902C345.725 821.902 344 820.177 344 818.049C344 815.92 345.725 814.195 347.854 814.195C349.982 814.195 351.707 815.92 351.707 818.049ZM417.22 821.902C419.348 821.902 421.073 820.177 421.073 818.048C421.073 815.92 419.348 814.195 417.22 814.195C415.091 814.195 413.366 815.92 413.366 818.048C413.366 820.177 415.091 821.902 417.22 821.902ZM490.438 818.048C490.438 820.177 488.713 821.902 486.585 821.902C484.456 821.902 482.731 820.177 482.731 818.048C482.731 815.92 484.456 814.195 486.585 814.195C488.713 814.195 490.438 815.92 490.438 818.048ZM555.953 821.902C558.081 821.902 559.806 820.177 559.806 818.048C559.806 815.92 558.081 814.195 555.953 814.195C553.824 814.195 552.099 815.92 552.099 818.048C552.099 820.177 553.824 821.902 555.953 821.902ZM629.171 818.048C629.171 820.177 627.446 821.902 625.318 821.902C623.189 821.902 621.464 820.177 621.464 818.048C621.464 815.92 623.189 814.195 625.318 814.195C627.446 814.195 629.171 815.92 629.171 818.048ZM694.684 821.902C696.812 821.902 698.538 820.177 698.538 818.048C698.538 815.92 696.812 814.195 694.684 814.195C692.556 814.195 690.83 815.92 690.83 818.048C690.83 820.177 692.556 821.902 694.684 821.902ZM767.902 818.048C767.902 820.177 766.176 821.902 764.048 821.902C761.92 821.902 760.194 820.177 760.194 818.048C760.194 815.92 761.92 814.195 764.048 814.195C766.176 814.195 767.902 815.92 767.902 818.048ZM833.415 821.902C835.543 821.902 837.269 820.177 837.269 818.048C837.269 815.92 835.543 814.195 833.415 814.195C831.287 814.195 829.561 815.92 829.561 818.048C829.561 820.177 831.287 821.902 833.415 821.902ZM906.634 818.048C906.634 820.177 904.909 821.902 902.78 821.902C900.652 821.902 898.927 820.177 898.927 818.048C898.927 815.92 900.652 814.195 902.78 814.195C904.909 814.195 906.634 815.92 906.634 818.048ZM972.146 821.902C974.274 821.902 976 820.177 976 818.048C976 815.92 974.274 814.195 972.146 814.195C970.018 814.195 968.292 815.92 968.292 818.048C968.292 820.177 970.018 821.902 972.146 821.902ZM351.707 887.415C351.707 889.543 349.982 891.268 347.854 891.268C345.725 891.268 344 889.543 344 887.415C344 885.286 345.725 883.561 347.854 883.561C349.982 883.561 351.707 885.286 351.707 887.415ZM417.22 891.268C419.348 891.268 421.073 889.543 421.073 887.415C421.073 885.286 419.348 883.561 417.22 883.561C415.091 883.561 413.366 885.286 413.366 887.415C413.366 889.543 415.091 891.268 417.22 891.268ZM490.438 887.415C490.438 889.543 488.713 891.268 486.585 891.268C484.456 891.268 482.731 889.543 482.731 887.415C482.731 885.286 484.456 883.561 486.585 883.561C488.713 883.561 490.438 885.286 490.438 887.415ZM555.953 891.268C558.081 891.268 559.806 889.543 559.806 887.415C559.806 885.286 558.081 883.561 555.953 883.561C553.824 883.561 552.099 885.286 552.099 887.415C552.099 889.543 553.824 891.268 555.953 891.268ZM629.171 887.415C629.171 889.543 627.446 891.268 625.318 891.268C623.189 891.268 621.464 889.543 621.464 887.415C621.464 885.286 623.189 883.561 625.318 883.561C627.446 883.561 629.171 885.286 629.171 887.415ZM694.684 891.268C696.812 891.268 698.538 889.543 698.538 887.415C698.538 885.286 696.812 883.561 694.684 883.561C692.556 883.561 690.83 885.286 690.83 887.415C690.83 889.543 692.556 891.268 694.684 891.268ZM767.902 887.415C767.902 889.543 766.176 891.268 764.048 891.268C761.92 891.268 760.194 889.543 760.194 887.415C760.194 885.286 761.92 883.561 764.048 883.561C766.176 883.561 767.902 885.286 767.902 887.415ZM833.415 891.268C835.543 891.268 837.269 889.543 837.269 887.415C837.269 885.286 835.543 883.561 833.415 883.561C831.287 883.561 829.561 885.286 829.561 887.415C829.561 889.543 831.287 891.268 833.415 891.268ZM906.634 887.415C906.634 889.543 904.909 891.268 902.78 891.268C900.652 891.268 898.927 889.543 898.927 887.415C898.927 885.286 900.652 883.561 902.78 883.561C904.909 883.561 906.634 885.286 906.634 887.415ZM972.146 891.268C974.274 891.268 976 889.543 976 887.415C976 885.286 974.274 883.561 972.146 883.561C970.018 883.561 968.292 885.286 968.292 887.415C968.292 889.543 970.018 891.268 972.146 891.268ZM351.707 956.781C351.707 958.909 349.982 960.635 347.854 960.635C345.725 960.635 344 958.909 344 956.781C344 954.653 345.725 952.927 347.854 952.927C349.982 952.927 351.707 954.653 351.707 956.781ZM417.22 960.635C419.348 960.635 421.073 958.909 421.073 956.781C421.073 954.653 419.348 952.927 417.22 952.927C415.091 952.927 413.366 954.653 413.366 956.781C413.366 958.909 415.091 960.635 417.22 960.635ZM490.438 956.781C490.438 958.909 488.713 960.635 486.585 960.635C484.456 960.635 482.731 958.909 482.731 956.781C482.731 954.653 484.456 952.927 486.585 952.927C488.713 952.927 490.438 954.653 490.438 956.781ZM555.953 960.635C558.081 960.635 559.806 958.909 559.806 956.781C559.806 954.653 558.081 952.927 555.953 952.927C553.824 952.927 552.099 954.653 552.099 956.781C552.099 958.909 553.824 960.635 555.953 960.635ZM629.171 956.781C629.171 958.909 627.446 960.635 625.318 960.635C623.189 960.635 621.464 958.909 621.464 956.781C621.464 954.653 623.189 952.927 625.318 952.927C627.446 952.927 629.171 954.653 629.171 956.781ZM694.684 960.635C696.812 960.635 698.538 958.909 698.538 956.781C698.538 954.653 696.812 952.927 694.684 952.927C692.556 952.927 690.83 954.653 690.83 956.781C690.83 958.909 692.556 960.635 694.684 960.635ZM767.902 956.781C767.902 958.909 766.176 960.635 764.048 960.635C761.92 960.635 760.194 958.909 760.194 956.781C760.194 954.653 761.92 952.927 764.048 952.927C766.176 952.927 767.902 954.653 767.902 956.781ZM833.415 960.635C835.543 960.635 837.269 958.909 837.269 956.781C837.269 954.653 835.543 952.927 833.415 952.927C831.287 952.927 829.561 954.653 829.561 956.781C829.561 958.909 831.287 960.635 833.415 960.635ZM906.634 956.781C906.634 958.909 904.909 960.635 902.78 960.635C900.652 960.635 898.927 958.909 898.927 956.781C898.927 954.653 900.652 952.927 902.78 952.927C904.909 952.927 906.634 954.653 906.634 956.781ZM972.146 960.635C974.274 960.635 976 958.909 976 956.781C976 954.653 974.274 952.927 972.146 952.927C970.018 952.927 968.292 954.653 968.292 956.781C968.292 958.909 970.018 960.635 972.146 960.635ZM351.707 1026.15C351.707 1028.27 349.982 1030 347.854 1030C345.725 1030 344 1028.27 344 1026.15C344 1024.02 345.725 1022.29 347.854 1022.29C349.982 1022.29 351.707 1024.02 351.707 1026.15ZM417.22 1030C419.348 1030 421.073 1028.27 421.073 1026.15C421.073 1024.02 419.348 1022.29 417.22 1022.29C415.091 1022.29 413.366 1024.02 413.366 1026.15C413.366 1028.27 415.091 1030 417.22 1030ZM490.438 1026.15C490.438 1028.27 488.713 1030 486.585 1030C484.456 1030 482.731 1028.27 482.731 1026.15C482.731 1024.02 484.456 1022.29 486.585 1022.29C488.713 1022.29 490.438 1024.02 490.438 1026.15ZM555.953 1030C558.081 1030 559.806 1028.27 559.806 1026.15C559.806 1024.02 558.081 1022.29 555.953 1022.29C553.824 1022.29 552.099 1024.02 552.099 1026.15C552.099 1028.27 553.824 1030 555.953 1030ZM629.171 1026.15C629.171 1028.27 627.446 1030 625.318 1030C623.189 1030 621.464 1028.27 621.464 1026.15C621.464 1024.02 623.189 1022.29 625.318 1022.29C627.446 1022.29 629.171 1024.02 629.171 1026.15ZM694.684 1030C696.812 1030 698.538 1028.27 698.538 1026.15C698.538 1024.02 696.812 1022.29 694.684 1022.29C692.556 1022.29 690.83 1024.02 690.83 1026.15C690.83 1028.27 692.556 1030 694.684 1030ZM767.902 1026.15C767.902 1028.27 766.176 1030 764.048 1030C761.92 1030 760.194 1028.27 760.194 1026.15C760.194 1024.02 761.92 1022.29 764.048 1022.29C766.176 1022.29 767.902 1024.02 767.902 1026.15ZM833.415 1030C835.543 1030 837.269 1028.27 837.269 1026.15C837.269 1024.02 835.543 1022.29 833.415 1022.29C831.287 1022.29 829.561 1024.02 829.561 1026.15C829.561 1028.27 831.287 1030 833.415 1030ZM906.634 1026.15C906.634 1028.27 904.909 1030 902.78 1030C900.652 1030 898.927 1028.27 898.927 1026.15C898.927 1024.02 900.652 1022.29 902.78 1022.29C904.909 1022.29 906.634 1024.02 906.634 1026.15ZM972.146 1030C974.274 1030 976 1028.27 976 1026.15C976 1024.02 974.274 1022.29 972.146 1022.29C970.018 1022.29 968.292 1024.02 968.292 1026.15C968.292 1028.27 970.018 1030 972.146 1030Z" fill="url(#paint1_radial)"/>
</g>
<defs>
<radialGradient id="paint0_radial" cx="0" cy="0" r="1" gradientUnits="userSpaceOnUse" gradientTransform="translate(1392 752) rotate(-135.097) scale(756.629 756.624)">
<stop stop-color="#252525"/>
<stop offset="1" stop-color="#252525" stop-opacity="0"/>
</radialGradient>
<radialGradient id="paint1_radial" cx="0" cy="0" r="1" gradientUnits="userSpaceOnUse" gradientTransform="translate(887 908) rotate(-135) scale(632.153 632.15)">
<stop stop-color="#252525"/>
<stop offset="1" stop-color="#252525" stop-opacity="0"/>
</radialGradient>
<clipPath id="clip0">
<rect width="1440" height="800" fill="white"/>
</clipPath>
</defs>
</svg>
