<svg width="1440" height="800" viewBox="0 0 1440 800" fill="none" xmlns="http://www.w3.org/2000/svg">
<g clip-path="url(#clip0)">
<rect y="770" width="1440" height="30" fill="#230619"/>
<rect y="720" width="1440" height="20" fill="#230619"/>
<rect y="695" width="1440" height="15" fill="#230619"/>
<rect y="679" width="1440" height="11" fill="#230619"/>
<rect y="648" width="1440" height="25" fill="#230619"/>
<rect x="855" y="795" width="50" height="5" fill="black"/>
<rect x="750" y="795" width="50" height="5" fill="black"/>
<rect x="690" y="795" width="20" height="5" fill="black"/>
<rect x="602" y="795" width="20" height="5" fill="black"/>
<rect x="487" y="790" width="115" height="10" fill="black"/>
<rect x="302" y="790" width="50" height="10" fill="black"/>
<rect x="372" y="795" width="115" height="5" fill="black"/>
<rect x="905" y="790" width="5" height="5" fill="black"/>
<rect x="905" y="785" width="10" height="5" fill="black"/>
<rect x="905" y="780" width="15" height="5" fill="black"/>
<rect x="905" y="775" width="20" height="5" fill="black"/>
<rect x="905" y="770" width="25" height="5" fill="black"/>
<rect x="905" y="765" width="30" height="5" fill="black"/>
<rect x="905" y="760" width="35" height="5" fill="black"/>
<rect x="905" y="755" width="40" height="5" fill="black"/>
<rect x="905" y="750" width="45" height="5" fill="black"/>
<rect x="905" y="745" width="50" height="5" fill="black"/>
<rect x="920" y="795" width="5" height="5" fill="black"/>
<rect x="925" y="790" width="5" height="5" fill="black"/>
<rect x="930" y="785" width="5" height="5" fill="black"/>
<rect x="935" y="780" width="5" height="5" fill="black"/>
<rect x="940" y="775" width="5" height="5" fill="black"/>
<rect x="945" y="770" width="5" height="5" fill="black"/>
<rect x="950" y="765" width="5" height="5" fill="black"/>
<rect x="955" y="760" width="5" height="5" fill="black"/>
<rect x="960" y="755" width="5" height="5" fill="black"/>
<rect x="965" y="750" width="5" height="5" fill="black"/>
<rect x="970" y="745" width="5" height="5" fill="black"/>
<rect x="940" y="795" width="5" height="5" fill="black"/>
<rect x="945" y="790" width="5" height="5" fill="black"/>
<rect x="950" y="785" width="5" height="5" fill="black"/>
<rect x="955" y="780" width="5" height="5" fill="black"/>
<rect x="960" y="775" width="5" height="5" fill="black"/>
<rect x="965" y="770" width="5" height="5" fill="black"/>
<rect x="970" y="765" width="5" height="5" fill="black"/>
<rect x="975" y="760" width="5" height="5" fill="black"/>
<rect x="980" y="755" width="5" height="5" fill="black"/>
<rect x="985" y="750" width="5" height="5" fill="black"/>
<rect x="990" y="745" width="5" height="5" fill="black"/>
<rect x="960" y="795" width="5" height="5" fill="black"/>
<rect x="965" y="790" width="5" height="5" fill="black"/>
<rect x="970" y="785" width="5" height="5" fill="black"/>
<rect x="975" y="780" width="5" height="5" fill="black"/>
<rect x="980" y="775" width="5" height="5" fill="black"/>
<rect x="985" y="770" width="5" height="5" fill="black"/>
<rect x="990" y="765" width="5" height="5" fill="black"/>
<rect x="995" y="760" width="5" height="5" fill="black"/>
<rect x="1000" y="755" width="5" height="5" fill="black"/>
<rect x="1005" y="750" width="5" height="5" fill="black"/>
<rect x="1010" y="745" width="5" height="5" fill="black"/>
<rect x="980" y="795" width="5" height="5" fill="black"/>
<rect x="985" y="790" width="5" height="5" fill="black"/>
<rect x="990" y="785" width="5" height="5" fill="black"/>
<rect x="995" y="780" width="5" height="5" fill="black"/>
<rect x="1000" y="775" width="5" height="5" fill="black"/>
<rect x="1005" y="770" width="5" height="5" fill="black"/>
<rect x="1010" y="765" width="5" height="5" fill="black"/>
<rect x="1015" y="760" width="5" height="5" fill="black"/>
<rect x="1020" y="755" width="5" height="5" fill="black"/>
<rect x="1025" y="750" width="5" height="5" fill="black"/>
<rect x="1030" y="745" width="5" height="5" fill="black"/>
<rect x="1000" y="795" width="5" height="5" fill="black"/>
<rect x="1005" y="790" width="5" height="5" fill="black"/>
<rect x="1010" y="785" width="5" height="5" fill="black"/>
<rect x="1015" y="780" width="5" height="5" fill="black"/>
<rect x="1020" y="775" width="5" height="5" fill="black"/>
<rect x="1025" y="770" width="5" height="5" fill="black"/>
<rect x="1030" y="765" width="5" height="5" fill="black"/>
<rect x="1035" y="760" width="5" height="5" fill="black"/>
<rect x="1040" y="755" width="5" height="5" fill="black"/>
<rect x="1045" y="750" width="5" height="5" fill="black"/>
<rect x="1050" y="745" width="5" height="5" fill="black"/>
<rect x="1020" y="795" width="5" height="5" fill="black"/>
<rect x="1025" y="790" width="5" height="5" fill="black"/>
<rect x="1030" y="785" width="5" height="5" fill="black"/>
<rect x="1035" y="780" width="5" height="5" fill="black"/>
<rect x="1040" y="775" width="5" height="5" fill="black"/>
<rect x="1045" y="770" width="5" height="5" fill="black"/>
<rect x="1050" y="765" width="5" height="5" fill="black"/>
<rect x="1055" y="760" width="5" height="5" fill="black"/>
<rect x="1060" y="755" width="5" height="5" fill="black"/>
<rect x="1065" y="750" width="5" height="5" fill="black"/>
<rect x="1070" y="745" width="5" height="5" fill="black"/>
<rect x="1040" y="795" width="5" height="5" fill="black"/>
<rect x="1045" y="790" width="5" height="5" fill="black"/>
<rect x="1050" y="785" width="5" height="5" fill="black"/>
<rect x="1055" y="780" width="5" height="5" fill="black"/>
<rect x="1060" y="775" width="5" height="5" fill="black"/>
<rect x="1065" y="770" width="5" height="5" fill="black"/>
<rect x="1070" y="765" width="5" height="5" fill="black"/>
<rect x="1075" y="760" width="5" height="5" fill="black"/>
<rect x="1080" y="755" width="5" height="5" fill="black"/>
<rect x="1085" y="750" width="5" height="5" fill="black"/>
<rect x="1090" y="745" width="5" height="5" fill="black"/>
<rect x="1060" y="795" width="5" height="5" fill="black"/>
<rect x="1065" y="790" width="5" height="5" fill="black"/>
<rect x="1070" y="785" width="5" height="5" fill="black"/>
<rect x="1075" y="780" width="5" height="5" fill="black"/>
<rect x="1080" y="775" width="5" height="5" fill="black"/>
<rect x="1085" y="770" width="5" height="5" fill="black"/>
<rect x="1090" y="765" width="5" height="5" fill="black"/>
<rect x="1095" y="760" width="5" height="5" fill="black"/>
<rect x="1100" y="755" width="5" height="5" fill="black"/>
<rect x="1105" y="750" width="5" height="5" fill="black"/>
<rect x="1110" y="745" width="5" height="5" fill="black"/>
<rect x="1080" y="795" width="5" height="5" fill="black"/>
<rect x="1085" y="790" width="5" height="5" fill="black"/>
<rect x="1090" y="785" width="5" height="5" fill="black"/>
<rect x="1095" y="780" width="5" height="5" fill="black"/>
<rect x="1100" y="775" width="5" height="5" fill="black"/>
<rect x="1105" y="770" width="5" height="5" fill="black"/>
<rect x="1110" y="765" width="5" height="5" fill="black"/>
<rect x="1115" y="760" width="5" height="5" fill="black"/>
<rect x="1120" y="755" width="5" height="5" fill="black"/>
<rect x="1125" y="750" width="5" height="5" fill="black"/>
<rect x="1130" y="745" width="5" height="5" fill="black"/>
<rect x="1100" y="795" width="5" height="5" fill="black"/>
<rect x="1105" y="790" width="5" height="5" fill="black"/>
<rect x="1110" y="785" width="5" height="5" fill="black"/>
<rect x="1115" y="780" width="5" height="5" fill="black"/>
<rect x="1120" y="775" width="5" height="5" fill="black"/>
<rect x="1125" y="770" width="5" height="5" fill="black"/>
<rect x="1130" y="765" width="5" height="5" fill="black"/>
<rect x="1135" y="760" width="5" height="5" fill="black"/>
<rect x="1140" y="755" width="5" height="5" fill="black"/>
<rect x="1145" y="750" width="5" height="5" fill="black"/>
<rect x="1150" y="745" width="5" height="5" fill="black"/>
<rect x="1120" y="795" width="5" height="5" fill="black"/>
<rect x="1125" y="790" width="5" height="5" fill="black"/>
<rect x="1130" y="785" width="5" height="5" fill="black"/>
<rect x="1135" y="780" width="5" height="5" fill="black"/>
<rect x="1140" y="775" width="5" height="5" fill="black"/>
<rect x="1145" y="770" width="5" height="5" fill="black"/>
<rect x="1150" y="765" width="5" height="5" fill="black"/>
<rect x="1155" y="760" width="5" height="5" fill="black"/>
<rect x="1160" y="755" width="5" height="5" fill="black"/>
<rect x="1165" y="750" width="5" height="5" fill="black"/>
<rect x="1170" y="745" width="5" height="5" fill="black"/>
<rect x="1140" y="795" width="5" height="5" fill="black"/>
<rect x="1145" y="790" width="5" height="5" fill="black"/>
<rect x="1150" y="785" width="5" height="5" fill="black"/>
<rect x="1155" y="780" width="5" height="5" fill="black"/>
<rect x="1160" y="775" width="5" height="5" fill="black"/>
<rect x="1165" y="770" width="5" height="5" fill="black"/>
<rect x="1170" y="765" width="5" height="5" fill="black"/>
<rect x="1175" y="760" width="5" height="5" fill="black"/>
<rect x="1180" y="755" width="5" height="5" fill="black"/>
<rect x="1185" y="750" width="5" height="5" fill="black"/>
<rect x="1190" y="745" width="5" height="5" fill="black"/>
<rect x="1160" y="795" width="5" height="5" fill="black"/>
<rect x="1165" y="790" width="5" height="5" fill="black"/>
<rect x="1170" y="785" width="5" height="5" fill="black"/>
<rect x="1175" y="780" width="5" height="5" fill="black"/>
<rect x="1180" y="775" width="5" height="5" fill="black"/>
<rect x="1185" y="770" width="5" height="5" fill="black"/>
<rect x="1190" y="765" width="5" height="5" fill="black"/>
<rect x="1195" y="760" width="5" height="5" fill="black"/>
<rect x="1200" y="755" width="5" height="5" fill="black"/>
<rect x="1205" y="750" width="5" height="5" fill="black"/>
<rect x="1210" y="745" width="5" height="5" fill="black"/>
<rect x="1180" y="795" width="5" height="5" fill="black"/>
<rect x="1185" y="790" width="5" height="5" fill="black"/>
<rect x="1190" y="785" width="5" height="5" fill="black"/>
<rect x="1195" y="780" width="5" height="5" fill="black"/>
<rect x="1200" y="775" width="5" height="5" fill="black"/>
<rect x="1205" y="770" width="5" height="5" fill="black"/>
<rect x="1210" y="765" width="5" height="5" fill="black"/>
<rect x="1215" y="760" width="5" height="5" fill="black"/>
<rect x="1220" y="755" width="5" height="5" fill="black"/>
<rect x="1225" y="750" width="5" height="5" fill="black"/>
<rect x="1230" y="745" width="5" height="5" fill="black"/>
<rect x="1200" y="795" width="5" height="5" fill="black"/>
<rect x="1205" y="790" width="5" height="5" fill="black"/>
<rect x="1210" y="785" width="5" height="5" fill="black"/>
<rect x="1215" y="780" width="5" height="5" fill="black"/>
<rect x="1220" y="775" width="5" height="5" fill="black"/>
<rect x="1225" y="770" width="5" height="5" fill="black"/>
<rect x="1230" y="765" width="5" height="5" fill="black"/>
<rect x="1235" y="760" width="5" height="5" fill="black"/>
<rect x="1240" y="755" width="5" height="5" fill="black"/>
<rect x="1245" y="750" width="5" height="5" fill="black"/>
<rect x="1250" y="745" width="5" height="5" fill="black"/>
<rect x="1220" y="795" width="5" height="5" fill="black"/>
<rect x="1225" y="790" width="5" height="5" fill="black"/>
<rect x="1230" y="785" width="5" height="5" fill="black"/>
<rect x="1235" y="780" width="5" height="5" fill="black"/>
<rect x="1240" y="775" width="5" height="5" fill="black"/>
<rect x="1245" y="770" width="5" height="5" fill="black"/>
<rect x="1250" y="765" width="5" height="5" fill="black"/>
<rect x="1255" y="760" width="5" height="5" fill="black"/>
<rect x="1260" y="755" width="5" height="5" fill="black"/>
<rect x="1265" y="750" width="5" height="5" fill="black"/>
<rect x="1270" y="745" width="5" height="5" fill="black"/>
<rect x="1240" y="795" width="5" height="5" fill="black"/>
<rect x="1245" y="790" width="5" height="5" fill="black"/>
<rect x="1250" y="785" width="5" height="5" fill="black"/>
<rect x="1255" y="780" width="5" height="5" fill="black"/>
<rect x="1260" y="775" width="5" height="5" fill="black"/>
<rect x="1265" y="770" width="5" height="5" fill="black"/>
<rect x="1270" y="765" width="5" height="5" fill="black"/>
<rect x="1275" y="760" width="5" height="5" fill="black"/>
<rect x="1280" y="755" width="5" height="5" fill="black"/>
<rect x="1285" y="750" width="5" height="5" fill="black"/>
<rect x="1290" y="745" width="150" height="5" fill="black"/>
<rect x="1300" y="755" width="140" height="5" fill="black"/>
<rect x="1310" y="765" width="130" height="5" fill="black"/>
<rect x="1320" y="775" width="120" height="5" fill="black"/>
<rect x="1330" y="785" width="110" height="5" fill="black"/>
<rect x="1340" y="795" width="100" height="5" fill="black"/>
<rect x="602" y="745" width="303" height="50" fill="black"/>
<rect x="302" y="745" width="300" height="45" fill="black"/>
<rect y="745" width="127" height="55" fill="black"/>
<rect x="277" y="745" width="25" height="5" fill="black"/>
<rect x="262" y="750" width="40" height="5" fill="black"/>
<rect x="262" y="760" width="40" height="5" fill="black"/>
<rect x="262" y="770" width="40" height="5" fill="black"/>
<rect x="292" y="790" width="10" height="5" fill="black"/>
<rect x="287" y="785" width="15" height="5" fill="black"/>
<rect x="282" y="780" width="20" height="5" fill="black"/>
<rect x="277" y="775" width="25" height="5" fill="black"/>
<rect x="182" y="765" width="120" height="5" fill="black"/>
<rect x="127" y="745" width="35" height="5" fill="black"/>
<rect x="127" y="750" width="40" height="5" fill="black"/>
<rect x="127" y="760" width="40" height="5" fill="black"/>
<rect x="127" y="770" width="30" height="5" fill="black"/>
<rect x="127" y="790" width="10" height="5" fill="black"/>
<rect x="127" y="785" width="15" height="5" fill="black"/>
<rect x="127" y="780" width="20" height="5" fill="black"/>
<rect x="127" y="775" width="25" height="5" fill="black"/>
<rect x="127" y="755" width="175" height="5" fill="black"/>
<rect x="127" y="765" width="35" height="5" fill="black"/>
<rect x="152" y="790" width="5" height="5" fill="black"/>
<rect x="157" y="785" width="5" height="5" fill="black"/>
<rect x="162" y="780" width="5" height="5" fill="black"/>
<rect x="167" y="775" width="5" height="5" fill="black"/>
<rect x="177" y="775" width="85" height="5" fill="black"/>
<rect x="167" y="785" width="115" height="5" fill="black"/>
<rect x="127" y="795" width="175" height="5" fill="black"/>
<rect x="172" y="770" width="5" height="5" fill="black"/>
<rect x="167" y="745" width="95" height="5" fill="black"/>
<rect x="1260" y="795" width="5" height="5" fill="black"/>
<rect x="1265" y="790" width="5" height="5" fill="black"/>
<rect x="1270" y="785" width="5" height="5" fill="black"/>
<rect x="1275" y="780" width="5" height="5" fill="black"/>
<rect x="1280" y="775" width="5" height="5" fill="black"/>
<rect x="1285" y="770" width="5" height="5" fill="black"/>
<rect x="1290" y="765" width="5" height="5" fill="black"/>
<rect x="1295" y="760" width="5" height="5" fill="black"/>
<rect x="1280" y="795" width="5" height="5" fill="black"/>
<rect x="1285" y="790" width="5" height="5" fill="black"/>
<rect x="1290" y="785" width="5" height="5" fill="black"/>
<rect x="1295" y="780" width="5" height="5" fill="black"/>
<rect x="1300" y="775" width="5" height="5" fill="black"/>
<rect x="1305" y="770" width="5" height="5" fill="black"/>
<rect x="1300" y="795" width="5" height="5" fill="black"/>
<rect x="1305" y="790" width="5" height="5" fill="black"/>
<rect x="1310" y="785" width="5" height="5" fill="black"/>
<rect x="1315" y="780" width="5" height="5" fill="black"/>
<path d="M447 649.5V654.5V656H450V660.5H456V656H459V649.5H455.5V646H450V649.5H447Z" fill="#A9287D"/>
<path d="M451 661.5V658.5H455V651.5H451V655H444V658.5H447V661.5H451Z" fill="#14040F"/>
<path d="M1359 699.5V703H1377.5V699.5V696H1373.5V692H1366V696H1363V699.5H1359Z" fill="#A9287D"/>
<path d="M1373.5 713H1366.5V710H1362.5V706.5H1359V703H1381V706.5H1377V710H1373.5V713Z" fill="#14040F"/>
<path d="M1363 700V703H1377.5V700H1374V697H1366.5V700H1363Z" fill="#230619"/>
<path d="M1180.5 732.5V740.5H1203V736.5V731.5H1199V718H1196V714.5H1191.5V718H1188V721.5H1184.5V732.5H1180.5Z" fill="#A9287D"/>
<path d="M1185 733.5V738.5V740.5H1199.5V732H1195.5V722H1192V725.5H1188.5V733.5H1185Z" fill="#230619"/>
<path d="M1180 743.5V740.5H1183.5V738H1187V740.5H1190.5V735.5H1194.5V740.5H1203V744H1199V748H1184.5V743.5H1180Z" fill="#14040F"/>
<path d="M362.5 633.413V640.367V660.73H366.5V672.65H370.5V664.207H375V671.16H403.5V678.61H408.5V683.577V689.537H437.5V695H221V565H226.5V562H232V627.453H238.5V605.103H245V610.5H251V605.103H259V627.453H268V630.433H272V627.453H278V630.433H283.5V609.077H293V614.043H297.5V605.103H303V600.633H306V597.157H297.5V581.76H303V570.833H309.5V546H318V579.277H321.5V586.727H328V623.48H333H340.5V627.453H347V623.48H358V633.413H362.5Z" fill="#14040F"/>
<path d="M325.5 650.5H317.5V654.5H321.5V661H325.5V650.5Z" fill="#A9287D"/>
<path d="M340 661H329V665H336.5V671.5H340V661Z" fill="#A9287D"/>
<path d="M336.5 679.5V676H340V679.5H336.5Z" fill="#A9287D"/>
<path d="M408.5 679.5H405V683H401V679.5H405V676H409H412.5V687H438V690H408.5V679.5Z" fill="#A9287D"/>
<path d="M404 671.5V668H384.5V671.5H404Z" fill="#A9287D"/>
<path d="M336.5 642.5V652.5H332.5V646.5H323V642.5H328V616H324.5V612H328V586H317.5V582.5H322V578.5H318V575H321V572H325V567.5H316.5V564H322V560H318V545H314V508H318V545H322V560H325V564H328.5V572H325V575H322V578.5H326.5V582.5H332.5V612H328V616H332.5V619.5H344V623.5H347V619.5H362.5V634.5H357.5V623.5H347V627.5H340V623.5H332.5V642.5H336.5Z" fill="#A9287D"/>
<path d="M295 616V612H299.5V616H295Z" fill="#A9287D"/>
<path d="M299.5 631V627H291.5V631H299.5Z" fill="#A9287D"/>
<path d="M280.5 631V627H284.5V631H280.5Z" fill="#A9287D"/>
<path d="M254 623.5H259V619.5H254V623.5Z" fill="#A9287D"/>
<path d="M240 600V605V627H228V623.5H232.5V616H228V612H232.5V605H228V601H232.5V593.5V590V582.5H228V578.5H232.5V571.5H228V567.5H232V562H226.5V559H232V562H235V555.5H239V560V571H235.5V575.5V578.5H240V600Z" fill="#A9287D"/>
<path d="M232 638.5V635H228V638.5H232Z" fill="#A9287D"/>
<path d="M79.5 633.219V640.196V660.628H75.5V672.588H71.5V664.116H67V671.093H38.5V678.568H33.5V683.551V689.532H5.5V695.013H221V561.957L215.5 561.957V568.5H210V590.5H219V599H214V603H210V627.239H204V622.5H183.5V627.239H174V630.229H170V627.239H164V630.229H158.5V608.801H149V613.784H144.5V604.814H139V600.329H136V596.841H144.5V581.392H139V570.429L132.5 570.429L124 570.429V578.9H120.5V586.375H114V623.252H109H101.5V627.239H95V623.252H84V633.219H79.5Z" fill="#14040F"/>
<path d="M116.5 650.163H124.5V654.15H120.5V660.628H116.5V650.163Z" fill="#A9287D"/>
<path d="M102 660.628H113V664.615H105.5V671.093H102V660.628Z" fill="#A9287D"/>
<path d="M105.5 679.066V675.578H102V679.066H105.5Z" fill="#A9287D"/>
<path d="M45 691.027V695.013H49V691.027H53.5V687.04H49V683.053H45V675.578H41.5V687.04H49V691.027H45Z" fill="#A9287D"/>
<path d="M43.5 668.103V672.588H69.5V668.103H43.5Z" fill="#A9287D"/>
<path d="M105.5 642.189V652.156H109.5V646.176H119V642.189H114V615.777H117.5V611.791H114V585.877H124.5V582.389H120V578.402H124V574.914H121V571.924H117V574.914H120V578.402H115.5V582.389H109.5V611.791H114V615.777H109.5V619.266H98V623.252H95V619.266H79.5V664.615H84.5V634.216V623.252H95V627.239H102V623.252H109.5V642.189H105.5Z" fill="#A9287D"/>
<path d="M147 615.777V611.791H142.5V615.777H147Z" fill="#A9287D"/>
<path d="M142.5 630.728V626.741H150.5V630.728H142.5Z" fill="#A9287D"/>
<path d="M161.5 630.728V626.741H157.5V630.728H161.5Z" fill="#A9287D"/>
<path d="M188 623.252H193V619.266H188V623.252Z" fill="#A9287D"/>
<path d="M847 642.425V648H851.002H1402V642.425H1368.97V634.254H1365.97V630.679H1361.46V619.443H1347.95V608.719H1335.94V592.887H1309.92V588.801H1287.9V585.226H1282.89V574.502H1272.38V578.076H1264.88V574.502H1253.87V565.82H1249.86V562.245H1253.87V535.688H1242.86V494.321H1235.85V511.685H1227.84V532.624H1224.34V547.434H1232.85V551.52H1227.84V555.095H1224.34V567.862H1209.83V584.162H1205.32V580.076H1198.82V584.162H1194.31V580.076H1183.3V576.502H1179.3V572.927H1183.3V568.33H1179.3V556.584H1164.78V580.076H1153.27V576.502H1156.78V567.82H1153.27V564.245H1156.78V556.584H1153.27V553.52H1156.78V545.349H1153.27V541.774H1156.78V531.56H1153.27V527.985H1156.78V521.856H1153.27V518.281H1156.78V510.11H1153.27V507.046H1149.77V503.471H1142.76V523.388H1139.76V526.453H1135.26V521.856H1138.26V496.321H1134.26V489.171H1127.25V499.385H1130.75V503.471H1127.25V511.642H1119.74V526.453H1127.25V553.52H1130.75V560.67H1127.25V594.887H1119.74V587.226H1115.74V584.162H1119.74V576.502H1115.74V552.498H1107.73V549.434H1105.23V545.349H1107.73V541.774H1111.74V537.688H1115.74V511.642H1105.23V496.321H1100.73V499.385H1094.22V492.746H1097.72V481H1094.22V484.064H1090.22V481H1083.21V560.67H1071.7V564.245H1067.2H1056.69V560.67H1037.67V549.434H1034.17V545.349H1037.67V541.774H1034.17V537.688H1037.67V534.113H1034.17V484.064H1024.16V481H1020.66V484.064H1016.65V481H999.637V526.453H1002.64V530.538H998.636V583.162H994.632V579.076H976.616V609.719H961.602V612.783H957.098V616.868H954.596V624.529H957.098V628.104H953.094V624.529H939.082V631.679H935.078V628.104H931.074V624.529H926.57V642.425H847Z" fill="#A9287D"/>
<path fill-rule="evenodd" clip-rule="evenodd" d="M849 648V644.489H926.007V625.933H930.479V629.443H934.453V632.954H938.428V625.933H952.339V629.443H956.313V625.933H953.829V618.41H956.313V614.398H960.785V611.388H975.689V581.297H993.575V585.309H997.549V532.648H1001.52V528.636H998.543V484H1015.44V487.009H1019.41V484H1022.89V487.009H1030.84V536.159H1034.31V539.67H1030.84V543.682H1034.31V547.193H1030.84V551.205H1034.31V562.239H1053.19V565.749H1063.63H1068.1V562.239H1079.52V484H1086.48V487.009H1090.46V484H1093.93V495.535H1090.46V502.055H1096.91V499.046H1101.39V514.092H1111.82V539.67H1107.84V543.682H1103.87V547.193H1101.39V551.205H1103.87V554.214H1111.82V577.786H1115.79V585.309H1111.82V588.318H1115.79V595.841H1123.25V562.239H1126.72V555.217H1123.25V528.636H1115.79V514.092H1123.25V506.067H1126.72V502.055H1123.25V492.024H1130.2V499.046H1134.18V524.122H1131.19V528.636H1135.67V525.627H1138.65V506.067H1145.6V509.578H1149.08V512.587H1152.56V520.612H1149.08V524.122H1152.56V530.141H1149.08V533.651H1152.56V543.682H1149.08V547.193H1152.56V555.217H1149.08V558.226H1152.56V565.749H1149.08V569.26H1152.56V577.786H1149.08V581.297H1160.51V558.226H1174.91V569.761H1178.89V574.275H1174.91V577.786H1178.89V581.297H1189.82V585.309H1194.29V581.297H1200.75V585.309H1205.22V571.266H1219.63V558.728H1223.11V555.217H1228.07V551.205H1219.63V536.661H1223.11V516.098H1231.06V499.046H1238.01V539.67H1248.94V565.749H1244.97V569.26H1248.94V577.786H1259.87V581.297H1267.32V577.786H1277.76V588.318H1282.72V591.829H1304.58V595.841H1330.42V611.388H1342.34V621.92H1355.76V632.954H1360.23V636.465H1363.21V644.489H1396V648H850.987H849ZM1045 573H1041V577H1045V581H1049V577H1045V573ZM1071 573H1067V577H1071V573ZM1078 588H1082V592H1078V588ZM1082 586V577V573H1075V577H1078V586H1082ZM1108 599H1112V603H1108V599ZM1143 610H1139V616H1143V610ZM1139 619H1143V623H1139V619ZM1261 625H1257V629H1261V625ZM1324 610H1328V614H1324V610ZM1333 615H1329V619H1333V615ZM1149 588H1153V592H1149V588ZM978 610H982V614H978V610ZM986 610H994V614V618H990V614H986V610ZM1143 599H1120V603H1139V607H1143V603V599ZM1251 614H1261V618V622H1257V618H1251V614ZM1246 603H1239V607H1242V613H1246V607V603ZM1247 595H1258V599V606H1254V599H1247V595Z" fill="#14040F"/>
<path d="M447.5 75.5V81V89H437.5V95.5H425.5V105H416.5V108H407.5V114.5H434.5V119H453.5V118H487V127H491.5H495.5V123.5H500.5V120H526.5V129H532.5V133.5H541.5V129H547V124.5H551.5V120H587V124.5H605V120H614H626.5V112H658.5V114.5V122.5H671.5V120V116.5H681V113H687V110H692V105H652V101H643V105H631.5V101H626.5H623V97H584.5V93.5H579.5H569V88.5V84.5H561.5V81H557V77.5H551.5V74H538V77.5H532.5V74H523V75.5H519V79H513.5V75.5H508.5V71.5H500.5V69H496V65H492V63H483V71.5H480V67.5H474.5V65H468V67.5H462V71.5H457.5V75.5H447.5Z" fill="#370426"/>
<path d="M361 112H394.5V108H402V104H409V108H413V112H417V108H420.5V104H428.5V108H435V112H439.5V108H436.5V104H439.5V101H446.5V104H450.5V96.5H444V94H439.5V91H442.5V84H446.5V79.5H450.5V82.5H457.5V79H461.5V75H465.5V79H468.5V82.5H473.5V86.5H468.5V82.5H461.5V86H464V88.5H466.5V90.5H468.5V94H464V96.5H461.5V101H465V107H461.5V112H466.5V109H472.5V105H480.5V100H479.5V101H474V100H471.5V104H468.5V95.5H476.5V97.5H484V101H501.5V98.5H504V97H506.5V89.5H513.5V93.5H520.5V96.5H523.5V99.5H520.5V104H526.5V101H528.5V97H532V99.5H533.5V101H551V104H554.5V101H558.5V97H573V101H569.5V104.5H577.5V101H598V104.5H584.5V107H581V112H584.5V116H581V119.5H577.5V116H569.5V112H558.5V113.5H554.5V110H551V107H548.5V104.5H533.5V109H543.5V112H547C546.667 113.333 546.2 116 547 116H565V119.5H547V123H543.5V127H539.5V130H535.5V127H532V123H528.5V119.5H502.5V116H513.5V112H503V108.5H499V104.5H487.5V108H483.5V112H488.5V108.5H497.5V112H501V116H497.5V119.5H494.5V123H491V127H487V123H483.5V119.5H479.5V123H474V127H468.5V123H461.5V119.5H457.5V123H454V127H450.5V130.5H444V123H446.5V116H439.5V119.5H435V123H424.5V119.5H414.5V123H409.5V119.5H405.5V116H394.5V119.5H383V116H376V119.5H372V116H363.5V117H361V112Z" fill="#14040F"/>
<path d="M539.5 93.5H532.5V97H539.5V93.5Z" fill="#14040F"/>
<path d="M469 71V67.5H472.5V71H469Z" fill="#A9287D"/>
<path d="M480 86V82.5H484V86H480Z" fill="#A9287D"/>
<path d="M487.5 82.5H491V86H495V89.5H491V93.5H487.5V89.5H491V86H487.5V82.5Z" fill="#A9287D"/>
<path d="M498.5 82.5H495V78.5H491V75H495V78.5H502.5V75H506V78.5H502.5V86H498.5V82.5Z" fill="#A9287D"/>
<path d="M510 82.5V78.5H514V82.5H510Z" fill="#A9287D"/>
<path d="M495 67.5V71H491V67.5H487.5V64H491V67.5H495Z" fill="#A9287D"/>
<path d="M524.5 78.5V75H528.5V78.5H532.5V82H528.5V78.5H524.5Z" fill="#A9287D"/>
<path d="M543 78.5H539.5V82H543V78.5Z" fill="#A9287D"/>
<path d="M547 78.5H551V82H554.5V86H551V82H547V78.5Z" fill="#A9287D"/>
<path d="M543 89.5H547V93.5H551V97.5H547V93.5H543V89.5Z" fill="#A9287D"/>
<path d="M558.5 89.5V86H566V89.5H570V93.5H566V89.5H558.5Z" fill="#A9287D"/>
<path d="M573.5 93.5V89.5H580.5V93.5H585V97.5H580.5V93.5H573.5Z" fill="#A9287D"/>
<path d="M588 119.5V116H592V119.5H588Z" fill="#A9287D"/>
<path d="M595.5 119.5V116H599.5V119.5H595.5Z" fill="#A9287D"/>
<path d="M595.5 108V112H599.5V108H595.5Z" fill="#A9287D"/>
<path d="M603 116V112H610.5V116H603Z" fill="#A9287D"/>
<path d="M614 116V112H618V116H622V112H626V108.5H644V112H626V116H622V119.5H618V116H614Z" fill="#A9287D"/>
<path d="M644 101V104.5H647.5V101H644Z" fill="#A9287D"/>
<path d="M626 104.5V101H618V104.5H614V101H610.5V97H614V101H618V97H626V101H632.5V104.5H626Z" fill="#A9287D"/>
<path d="M647.5 112V108.5H651V104.5H655V108.5H658.5V112H662.5V115.5H666.5V112H670V108.5H681V112H670V115.5H666.5V119.5H662.5V115.5H658.5V112H647.5Z" fill="#A9287D"/>
<path d="M98.5 184V179H88.5V186.75H84V194.5H73.5V202H66V206.5H59V212H81.5V217.5H111V212H144V216H177V212H218L222.5 206.5L227 202V197.5V194.5H218V190.5H207.5V184H196V179H174V177V174H161.5V170V165H148.5V160.5H129V170H124.5V175H118.5V184H123.5V189H116.5H103.5V184H98.5Z" fill="#370426"/>
<path d="M115 219.5V216.5V215.5H107V219.5H96H85V215.5H80.5V210H85V204H74.5V200H80.5V194H85V189.5H92.5V194H99.5V197.5H103.5V201H107V197.5H111V194H115V189.5H123.5V194H128.5V197.5H132V201H128.5V205.5H125V208.5H130.5V205.5H140.5V200H136.5V197.5H133.5V194H136.5V189.5H152.5V194H158.5V200H163.5V204H177.5V208.5H199.5V212.5H170V208.5H148V212.5H122V215.5H162V219.5H115Z" fill="#14040F"/>
<path fill-rule="evenodd" clip-rule="evenodd" d="M126 182.5V185.5H133V179.5H137V182.5H141V186H144.5V178.5H137V175H141V167.5H144.5V175H148V179H155V182.5H151.5V186H155.5V182.5H159V186H163V190H170V186H173.5V193.5H170V197H166.5V200.5H170.5V197H174V193.5H177.5V197H185V201H181.5V205H185V201H196.5V197H200V201H211.5V197H215V201H218.5V205H215V208.5H203.5V212.5H226V208.5H222.5V207H226V203H233.5V205H237V208.5H233.5V212.5H245V205H252V201H278.5V197H241V193.5H237.5V190H230V193.5H222.5V197H215V193.5H211V190H207.5V186H200V190H196.5V197H192.5V193.5H189V190H192.5V186H196.5V179H192.5V175H185V182.5H181.5V175H174V178.5H170.5V167.5H162.5V171H159V178.5H155.5V175H151.5V171H155V163.5H148.5V167.5H144.5V163.5H141V160H128.5V167.5H133V175H129.5V171.5H126V176H122V182.5H126ZM189 193.5H185V197H189V193.5Z" fill="#A9287D"/>
<path d="M222.5 208.5H226V207H222.5V208.5Z" fill="#A9287D"/>
<path d="M1015 114.5V92H1019V85.5H1023V78H1027V74H1031V70H1038V66.5H1045.5V63H1066.5V66.5H1074V70H1081.5V74H1086V78H1090V85.5H1093.5V92H1098V114.5H1093.5V119.5H1090V125H1086V131H1081.5V136.5H1074V139.5H1066.5V143H1045.5V139.5H1038V136.5H1031V131H1027V125H1023V119.5H1019V114.5H1015Z" fill="#BD5A9C"/>
<path d="M959 179.5H910V175.5H939.5V172H943.5V168H948V164.5H955V168H959V172H974V168H1007V164.5H981.5V161H988V157H992.5V153.5H1003.5V161H1007V157H1011V153.5H1015V149.5H1003.5V146H1000V142H1003.5V138.5H1011V135H1018.5V138.5H1026V135H1030V131H1037V135H1045V131H1041.5V127.5H1045V123.5H1056.5V116.5H1059.5V113H1067V115.5H1070.5V119.5H1074.5V127.5H1078V123.5H1082V113H1085.5V108.5H1093.5V104.5H1100.5V101.5V97.5H1104.5V94H1111.5V97.5H1115.5V94H1119V90H1125.5V101.5V179.5H1056.5V184H1052.5V188H1045V184H1040.5V179.5H978.5V184H974V188H966.5V184H959V179.5Z" fill="#A9287D"/>
<path d="M981.5 172H1007V168H1011.5V165H1018.5V161H1025.5V165H1018.5V168H1022.5V172H1030.5V168H1040.5V161H1045V157H1048.5V153.5H1056V157H1048.5V161H1045V168H1048.5V172H1056V168H1074.5V161H1070V157H1064V161H1060V153.5H1070V149.5H1074.5V146H1082.5V149.5H1086V157H1082.5V149.5H1074.5V153.5H1070V157H1074.5V161H1078.5V165H1093V161H1089.5V157H1093V149.5H1097V146H1100.5V149.5H1097V161H1108V157H1111.5V149.5H1108V146H1104.5V142.5H1100.5V138.5H1093V134.5H1100.5V138.5H1104.5V142.5H1108V139H1111.5V134.5H1119V139H1111.5V146H1119V149.5H1122.5V153.5H1125.5V157H1122.5V161H1125.5V180H1097V183H1058V188.5H1054V192H1043.5V186.5H1038.5V182.5H1034.5V180H1030.5V183H1024V180H1020V182H1016.5V183.5H1010.5V189.5H1005.5V187H1000.5V183H994.5V179.5H1011.5V176H981.5V172Z" fill="#370426"/>
<path d="M1030.5 161V153.5H1034.5V161H1038.5V165H1034.5V161H1030.5Z" fill="#370426"/>
<path d="M1037 149.5V153.5H1040.5V149.5H1037Z" fill="#370426"/>
<path d="M1037 142.5V146H1033V142.5H1026.5V138.5H1033V142.5H1037Z" fill="#370426"/>
<path d="M1045 142.5V138.5H1048.5V142.5H1045Z" fill="#370426"/>
<path d="M1060 138.5V135H1052V131H1060V135H1064V138.5H1060Z" fill="#370426"/>
<path d="M1108 131H1104.5V123.5H1100.5V120H1093V116.5H1100.5V120H1104.5V123.5H1108V131Z" fill="#370426"/>
<path d="M1108 116.5V113H1115V109H1119V105H1122.5V101.5H1125.5V109H1119V113H1115V116.5H1108Z" fill="#370426"/>
<path d="M1122.5 120V123.5H1125.5V120H1122.5Z" fill="#370426"/>
<path d="M1086 123.5V120H1089.5V123.5H1086V127.5H1082.5V123.5H1086Z" fill="#370426"/>
<path d="M1074.5 127.5H1070.5V134.5H1074.5V127.5Z" fill="#370426"/>
<path d="M1100.5 101.5V109H1108V105H1104.5V101.5H1100.5Z" fill="#370426"/>
<path d="M1066.5 172H1070.5V168H1078V172H1082V175.5H1093V172H1100.5V163.5H1104.5V172H1108.5V175.5H1121.5V172H1125.5V180H1096.5V183H1063V179.5H1056V175.5H1063V179.5H1082V175.5H1078V172H1070.5V175.5H1066.5V172Z" fill="#14040F"/>
<path d="M1096.5 164.5H1093V161H1096.5V164.5Z" fill="#14040F"/>
<path d="M1116 172H1112V168.5H1116V164.5H1125.5V168.5H1116V172Z" fill="#14040F"/>
<path d="M1291.5 179.5H1316.5V175.5H1311V172H1307V168H1302.5V164.5H1295.5V168H1291.5V172H1276.5V168H1269V164.5V161H1262.5V157H1258V153.5H1247V161H1243.5V157H1239.5V153.5H1235.5V149.5V147H1242V141H1235.5V138.5H1232H1224.5V135H1220.5V131H1213.5V135H1205.5V131H1209V127.5H1205.5V123.5H1194V116.5H1191V113H1183.5V115.5H1180V119.5H1176V127.5H1172.5V123.5H1168.5V113H1165V108.5H1157V104.5H1150V101.5V97.5H1146V94H1139V97.5H1135V94H1131.5V90H1125V101.5V179.5H1194V184H1198V188H1205.5V184H1210V179.5H1272V184H1276.5V188H1284V184H1291.5V179.5Z" fill="#A9287D"/>
<path d="M1160 156.5H1163V160.5H1167V152.5H1174V163H1180.5V160.5H1184V163H1195V156.5H1191.5V151H1188V147.5H1191.5V143H1184V147.5H1175V140H1191.5V130H1184V126.5H1191.5V130H1196.5V140V145H1202.5V152.5H1207V156.5H1212.5V160.5H1216V163V171.25H1225.5V175.5H1236.5V168H1231.5V163H1225.5V159H1231.5V163H1236.5V168H1241.5V163H1247V168V175.5H1261V168H1265.5V171.25H1271.5V175.5H1265.5V179.5H1216H1163V175.5H1138.5H1125V170.5H1122V160.5H1130.5V156.5H1127V152.5H1130.5V145H1134.5V141.5H1138V145H1134.5V156.5H1145.5V152.5H1149V145H1145.5V141.5H1142V138H1138V134H1130.5V130H1138V134H1142V138H1145.5V134.5H1149V130H1156.5V134.5H1149V141.5H1156.5V145H1160V149H1163V152.5H1160V156.5Z" fill="#370426"/>
<path d="M1145.5 126.5H1142V119H1138V115.5H1130.5V112H1138V115.5H1142V119H1145.5V126.5Z" fill="#370426"/>
<path d="M1145.5 112V108.5H1152.5V104.5H1156.5V108.5H1152.5V112H1145.5Z" fill="#370426"/>
<path d="M1160 115.5V119H1163V115.5H1160Z" fill="#370426"/>
<path d="M1123.5 119V115.5H1127V119H1123.5V123H1120V119H1123.5Z" fill="#370426"/>
<path d="M1138 97V104.5H1145.5V100.5H1142V97H1138Z" fill="#370426"/>
<path d="M1163 140V134H1167V130H1172.5V134H1167V140H1163Z" fill="#370426"/>
<path d="M1212.5 149V140H1216H1223V143H1225.5V147.5H1231.5V151H1223V143H1216V149H1212.5Z" fill="#370426"/>
<path d="M1184 172H1180V168H1172.5V172H1168.5V175.5H1157.5V172H1150V163.5H1146V172H1142V175.5H1129V172H1125V180H1154H1168.5V179.5H1187.5H1194.5H1197.5V184H1203.5V179.5H1208H1220.5V175.5H1213V172H1208V168.5H1203.5V164.5H1199.5V172H1194.5V175.5H1187.5V179.5H1168.5V175.5H1172.5V172H1180V175.5H1184V172Z" fill="#14040F"/>
<path d="M1154 164.5H1157.5V161H1154V164.5Z" fill="#14040F"/>
<path d="M1134.5 172H1138.5V168.5H1134.5V164.5H1125V168.5H1134.5V172Z" fill="#14040F"/>
</g>
<defs>
<clipPath id="clip0">
<rect width="1440" height="800" fill="white"/>
</clipPath>
</defs>
</svg>
