<svg width="305" height="251" viewBox="0 0 305 251" fill="none" xmlns="http://www.w3.org/2000/svg">
<path d="M64.0206 74.9063L64.0651 75.3613L64.5223 75.3576C64.5603 75.3573 64.5983 75.3571 64.6364 75.3571C72.2863 75.3571 78.5 81.6503 78.5 89.4286C78.5 97.2068 72.2863 103.5 64.6364 103.5H16.7576C7.78551 103.5 0.5 96.1195 0.5 87C0.5 77.8805 7.78551 70.5 16.7576 70.5C17.1113 70.5 17.4624 70.5115 17.8103 70.534L18.2043 70.5596L18.3206 70.1822C21.2988 60.511 30.1947 53.5 40.697 53.5C52.8449 53.5 62.8439 62.8814 64.0206 74.9063Z" fill="#161616" stroke="#6C6C6C"/>
<path d="M232.637 109.416L180.5 200.252M67 109.416L119 200.252" stroke="#313131" stroke-dasharray="2 2"/>
<path d="M149.819 26C152.1 26 154.264 26.5679 156.303 27.5983C164.43 27.5983 171.46 29.1479 177.523 31.8208C217.606 41.1927 232.637 84.3568 232.637 109.409C232.146 105.184 227.45 96.7353 212.596 96.7353C212.426 93.2304 209.897 87.866 202.575 84.3007C197.166 81.6672 189.143 80.0154 177.523 80.8194C176.844 80.1899 175.761 79.405 174.281 78.5797C169.762 76.0602 161.541 73.1646 149.819 73.1646C134.257 73.1646 124.865 78.2678 122.114 80.8194C94.7634 78.9267 87.3363 90.6414 87.0415 96.7353C72.1872 96.7353 67.4912 105.184 67 109.409C67 84.3568 82.0311 41.1927 122.114 31.8208C128.177 29.1479 135.207 27.5983 143.335 27.5983C145.373 26.5679 147.537 26 149.819 26Z" fill="#1C1C1C"/>
<path d="M177.523 80.8194C178.554 64.3273 170.482 34.7675 156.303 27.5983M177.523 80.8194C189.143 80.0153 197.166 81.6672 202.575 84.3007C209.897 87.866 212.426 93.2304 212.596 96.7353M177.523 80.8194C176.844 80.1899 175.761 79.405 174.281 78.5797C169.762 76.0602 161.541 73.1646 149.819 73.1646C134.257 73.1646 124.865 78.2678 122.114 80.8194M212.596 96.7353C212.355 77.9152 204.527 43.7258 177.523 31.8208M212.596 96.7353C227.45 96.7353 232.146 105.184 232.637 109.409C232.637 84.3567 217.606 41.1927 177.523 31.8208M156.303 27.5983C154.264 26.5679 152.1 26 149.819 26C147.537 26 145.373 26.5679 143.335 27.5983M156.303 27.5983C164.43 27.5983 171.46 29.1479 177.523 31.8208M122.114 80.8194C121.083 64.3273 129.155 34.7675 143.335 27.5983M122.114 80.8194C94.7634 78.9267 87.3363 90.6414 87.0415 96.7353M87.0415 96.7353C87.2822 77.9152 95.11 43.7258 122.114 31.8208M87.0415 96.7353C72.1872 96.7353 67.4912 105.184 67 109.409C67 84.3568 82.0311 41.1927 122.114 31.8208M143.335 27.5983C135.207 27.5983 128.177 29.1479 122.114 31.8208" stroke="#313131" stroke-dasharray="2 2"/>
<path d="M67 109.244C67.4912 105.02 72.1872 96.5708 87.0415 96.5708C87.211 93.0658 89.74 87.7015 97.0622 84.1362C102.471 81.5027 110.494 79.8508 122.114 80.6549C122.793 80.0253 123.876 79.2404 125.356 78.4152C129.875 75.8957 138.096 73 149.819 73C161.541 73 169.762 75.8956 174.281 78.4151C175.761 79.2404 176.844 80.0253 177.523 80.6549C189.143 79.8508 197.166 81.5027 202.575 84.1362C209.897 87.7014 212.426 93.0658 212.596 96.5708C227.45 96.5708 232.146 105.02 232.637 109.244C232.637 113.967 226.978 122.455 211.417 121.041C206.112 129.588 192.849 131.946 179.586 128.114C172.513 134.598 158.955 136.367 149.819 136.367C140.682 136.367 127.125 134.598 120.051 128.114C106.788 131.946 93.5255 129.588 88.2204 121.041C72.6588 122.455 67 113.672 67 109.244Z" fill="#161616"/>
<path d="M88.2204 121.041C72.6588 122.455 67 113.672 67 109.244C67.4912 105.02 72.1872 96.5708 87.0415 96.5708C87.3363 90.4768 94.7634 78.7622 122.114 80.6549C124.865 78.1033 134.257 73 149.819 73C161.541 73 169.762 75.8956 174.281 78.4151M88.2204 121.041C93.5255 129.588 106.788 131.946 120.051 128.114M88.2204 121.041C89.3993 112.451 92.8181 93.0451 97.0622 84.1362M120.051 128.114C127.125 134.598 140.682 136.367 149.819 136.367C158.955 136.367 172.513 134.598 179.586 128.114M120.051 128.114C120.346 116.497 121.819 90.2923 125.356 78.4151M211.417 121.041C226.978 122.455 232.637 113.967 232.637 109.244C232.146 105.02 227.45 96.5708 212.596 96.5708C212.426 93.0658 209.897 87.7014 202.575 84.1362M211.417 121.041C206.112 129.588 192.849 131.946 179.586 128.114M211.417 121.041C210.238 112.451 206.819 93.0451 202.575 84.1362M179.586 128.114C179.291 116.497 177.818 90.2923 174.281 78.4151M202.575 84.1362C197.166 81.5027 189.143 79.8508 177.523 80.6549C176.844 80.0253 175.761 79.2404 174.281 78.4151" stroke="#313131" stroke-dasharray="2 2"/>
<path d="M136 210L120 128.5M161.5 210L177.523 80.5327" stroke="#313131" stroke-dasharray="2 2"/>
<path d="M215.662 29.6222L215.616 30.0757L215.161 30.0721C215.107 30.0716 215.054 30.0714 215 30.0714C204.224 30.0714 195.5 38.6807 195.5 49.2857C195.5 59.8907 204.224 68.5 215 68.5H281.667C294.284 68.5 304.5 58.4197 304.5 46C304.5 33.5804 294.284 23.5 281.667 23.5C281.17 23.5 280.676 23.5156 280.187 23.5465L279.797 23.571L279.679 23.1985C275.512 10.0492 263.056 0.5 248.333 0.5C231.302 0.5 217.308 13.2768 215.662 29.6222Z" fill="#161616" stroke="#6C6C6C"/>
<rect x="118" y="204" width="64" height="46" fill="#1C1C1C" stroke="#6C6C6C" stroke-dasharray="2 2"/>
<path d="M155 238C155 235.239 152.761 233 150 233C147.239 233 145 235.239 145 238" stroke="#6C6C6C" stroke-width="2"/>
<path d="M129 222L139 227.5L129 233" stroke="#6C6C6C" stroke-width="2"/>
<path d="M171 222L161 227.5L171 233" stroke="#6C6C6C" stroke-width="2"/>
<rect x="115" y="199" width="70" height="12" fill="#252525" stroke="#6C6C6C" stroke-dasharray="2 2"/>
</svg>
