<svg width="528" height="528" viewBox="0 0 528 528" fill="none" xmlns="http://www.w3.org/2000/svg">
<path d="M208.545 215C220.394 215 230 205.15 230 193C230 180.85 220.394 171 208.545 171C208.487 171 208.428 171 208.369 171.001C206.575 152.472 191.33 138 172.788 138C156.758 138 143.192 148.816 138.651 163.72C138.115 163.684 137.575 163.667 137.03 163.667C123.206 163.667 112 175.158 112 189.333C112 203.509 123.206 215 137.03 215H208.545Z" fill="#161616"/>
<path d="M208.369 171.001C206.575 152.472 191.33 138 172.788 138C156.758 138 143.192 148.816 138.651 163.72M208.369 171.001C208.428 171 208.487 171 208.545 171C220.394 171 230 180.85 230 193C230 205.15 220.394 215 208.545 215H137.03C123.206 215 112 203.509 112 189.333C112 175.158 123.206 163.667 137.03 163.667C137.575 163.667 138.115 163.684 138.651 163.72M208.369 171.001C203.766 171.039 199.508 172.563 196.03 175.129M138.651 163.72C137.598 167.177 137.03 170.854 137.03 174.667C137.03 178.2 137.518 181.616 138.427 184.848" stroke="#313131"/>
<path d="M306.247 181L268.749 208.689L275.722 192.371L306.247 181Z" fill="#252525" stroke="#6C6C6C" stroke-dasharray="2 2"/>
<path d="M219.742 181L256.906 208.948L250.267 192.371L219.742 181Z" fill="#252525" stroke="#6C6C6C" stroke-dasharray="2 2"/>
<path d="M292.749 245.202L282.772 260.413L304.136 266.283L310.256 245.535L292.749 245.202Z" fill="#252525" stroke="#6C6C6C" stroke-dasharray="2 2"/>
<path d="M215.79 245.535L221.873 266.283L243.2 260.413L233.26 245.202L215.79 245.535Z" fill="#252525" stroke="#6C6C6C" stroke-dasharray="2 2"/>
<path d="M242.04 219.507L236.106 228.441L257.247 229.401L256.543 206.696L242.04 219.507Z" fill="#252525" stroke="#6C6C6C" stroke-dasharray="2 2"/>
<path d="M283.956 219.507L269.231 206.437L268.749 229.401L289.89 228.441L283.956 219.507Z" fill="#252525" stroke="#6C6C6C" stroke-dasharray="2 2"/>
<path d="M243.193 260.413L255.988 254.247L244.973 245.682L243.193 260.413Z" fill="#252525" stroke="#6C6C6C" stroke-dasharray="2 2"/>
<path d="M270.015 254.247L282.774 260.413L281.031 245.682L270.015 254.247Z" fill="#252525" stroke="#6C6C6C" stroke-dasharray="2 2"/>
<path d="M282.774 260.413L270.015 254.248L271.054 262.517L270.942 266.025L282.774 260.413Z" fill="#6C6C6C" stroke="#6C6C6C" stroke-dasharray="2 2"/>
<path d="M243.193 260.413L255.061 266.025L254.987 262.517L255.988 254.248L243.193 260.413Z" fill="#6C6C6C" stroke="#6C6C6C" stroke-dasharray="2 2"/>
<path d="M255.277 240.217L244.669 237.116L252.162 233.683L255.277 240.217Z" fill="#161616" stroke="#6C6C6C" stroke-dasharray="2 2"/>
<path d="M270.712 240.217L273.828 233.683L281.357 237.116L270.712 240.217Z" fill="#161616" stroke="#6C6C6C" stroke-dasharray="2 2"/>
<path d="M243.202 260.413L245.057 245.202L233.262 245.535L243.202 260.413Z" fill="#202020" stroke="#6C6C6C" stroke-dasharray="2 2"/>
<path d="M280.947 245.202L282.764 260.413L292.741 245.535L280.947 245.202Z" fill="#202020" stroke="#6C6C6C" stroke-dasharray="2 2"/>
<path d="M289.89 228.44L268.749 229.4L270.715 240.217L273.831 233.682L281.36 237.116L289.89 228.44Z" fill="#202020" stroke="#6C6C6C" stroke-dasharray="2 2"/>
<path d="M244.674 237.116L252.166 233.682L255.281 240.217L257.247 229.4L236.106 228.44L244.674 237.116Z" fill="#202020" stroke="#6C6C6C" stroke-dasharray="2 2"/>
<path d="M236.106 228.44L244.971 245.681L244.674 237.116L236.106 228.44Z" fill="#252525" stroke="#6C6C6C" stroke-dasharray="2 2"/>
<path d="M281.371 237.116L281.037 245.681L289.902 228.44L281.371 237.116Z" fill="#252525" stroke="#6C6C6C" stroke-dasharray="2 2"/>
<path d="M257.256 229.4L255.29 240.218L257.775 252.991L258.331 236.156L257.256 229.4Z" fill="#252525" stroke="#6C6C6C" stroke-dasharray="2 2"/>
<path d="M268.75 229.4L267.711 236.12L268.231 252.991L270.716 240.218L268.75 229.4Z" fill="#252525" stroke="#6C6C6C" stroke-dasharray="2 2"/>
<path d="M270.705 240.218L268.22 252.992L270.001 254.247L281.016 245.682L281.35 237.117L270.705 240.218Z" fill="#313131" stroke="#6C6C6C" stroke-dasharray="2 2"/>
<path d="M244.669 237.117L244.966 245.682L255.982 254.247L257.762 252.992L255.277 240.218L244.669 237.117Z" fill="#313131" stroke="#6C6C6C" stroke-dasharray="2 2"/>
<path d="M270.936 266.024L271.047 262.517L270.083 261.704H255.915L254.987 262.517L255.061 266.024L243.193 260.412L247.347 263.809L255.766 269.605H270.194L278.65 263.809L282.767 260.412L270.936 266.024Z" fill="#4D4D4D" stroke="#6C6C6C" stroke-dasharray="2 2"/>
<path d="M270.009 254.247L268.229 252.992H257.77L255.99 254.247L254.988 262.517L255.915 261.705H270.084L271.048 262.517L270.009 254.247Z" fill="black" stroke="#6C6C6C" stroke-dasharray="2 2"/>
<path d="M307.847 210.498L311 195.214L306.252 181L270.015 207.766L283.961 219.506L303.656 225.229L307.995 220.171L306.104 218.805L309.108 216.073L306.808 214.301L309.813 212.012L307.847 210.498Z" fill="#1C1C1C" stroke="#6C6C6C" stroke-dasharray="2 2"/>
<path d="M215 195.214L218.19 210.498L216.15 212.012L219.191 214.301L216.892 216.073L219.896 218.805L218.004 220.171L222.344 225.229L242.039 219.506L255.984 207.766L219.748 181L215 195.214Z" fill="#1C1C1C" stroke="#6C6C6C" stroke-dasharray="2 2"/>
<path d="M303.662 225.228L283.967 219.505L289.902 228.44L281.037 245.681L292.757 245.533H310.264L303.662 225.228Z" fill="#313131" stroke="#6C6C6C" stroke-dasharray="2 2"/>
<path d="M242.05 219.505L222.355 225.228L215.79 245.533H233.26L244.98 245.681L236.116 228.44L242.05 219.505Z" fill="#313131" stroke="#6C6C6C" stroke-dasharray="2 2"/>
<path d="M268.747 229.4L270.008 207.766L275.719 192.371H250.276L255.988 207.766L257.249 229.4L257.731 236.193L257.768 252.992H268.227L268.264 236.193L268.747 229.4Z" fill="#313131" stroke="#6C6C6C" stroke-dasharray="2 2"/>
<path d="M239 371.588C239 373.927 240.896 375.823 243.235 375.823H282.765C285.104 375.823 287 373.927 287 371.588V371.588H239V371.588Z" stroke="#6C6C6C"/>
<path d="M257.352 371.588C257.352 372.368 257.984 373 258.763 373H267.234C268.014 373 268.646 372.368 268.646 371.588H257.352Z" fill="#6C6C6C"/>
<path d="M243.939 349C243.939 347.441 245.203 346.177 246.763 346.177H279.233C280.793 346.177 282.057 347.441 282.057 349V371.588H243.939V349Z" stroke="#6C6C6C"/>
<path d="M246.762 349H279.233V371.588H246.762V349Z" stroke="#6C6C6C"/>
<circle cx="263.001" cy="347.588" r="0.705882" fill="#6C6C6C"/>
<path d="M270 303L258 315M258 303L270 315" stroke="#6C6C6C" stroke-width="2"/>
<path d="M355.273 232C347.942 232 342 226.244 342 219.143C342 212.042 347.942 206.286 355.273 206.286C355.309 206.286 355.346 206.286 355.382 206.286C356.492 195.457 365.923 187 377.394 187C387.311 187 395.703 193.321 398.512 202.031C398.844 202.01 399.178 202 399.515 202C408.067 202 415 208.716 415 217C415 225.284 408.067 232 399.515 232H355.273Z" fill="#161616"/>
<path d="M355.382 206.286C356.492 195.457 365.923 187 377.394 187C387.311 187 395.703 193.321 398.512 202.031M355.382 206.286C355.346 206.286 355.309 206.286 355.273 206.286C347.942 206.286 342 212.042 342 219.143C342 226.244 347.942 232 355.273 232H399.515C408.067 232 415 225.284 415 217C415 208.716 408.067 202 399.515 202C399.178 202 398.844 202.01 398.512 202.031M355.382 206.286C358.229 206.308 360.863 207.199 363.015 208.699M398.512 202.031C399.164 204.051 399.515 206.2 399.515 208.429C399.515 210.493 399.214 212.49 398.651 214.379" stroke="#313131"/>
</svg>
